<svg width="102" height="55" viewBox="0 0 102 55" fill="none" xmlns="http://www.w3.org/2000/svg">
<path d="M12.1429 1C12.1429 0.447716 12.5906 0 13.1429 0L88.8571 0C89.4094 0 89.8571 0.447715 89.8571 1V4.88889L101.728 25.2006C101.898 25.4915 101.91 25.8484 101.76 26.1501L89.8571 50.1111V54C89.8571 54.5523 89.4094 55 88.8571 55L13.1429 55C12.5906 55 12.1429 54.5523 12.1429 54V50.1111L0.254082 27.9731C0.0954109 27.6777 0.0954101 27.3223 0.254081 27.0269L12.1429 4.88889V1Z" fill="#FFEE00"/>
<path d="M89.3571 4.88889V5.02428L89.4255 5.14117L101.296 25.4529C101.381 25.5983 101.387 25.7768 101.312 25.9276L89.4093 49.8887L89.3571 49.9938V50.1111V54C89.3571 54.2761 89.1333 54.5 88.8571 54.5L13.1429 54.5C12.8667 54.5 12.6429 54.2761 12.6429 54V50.1111V49.9853L12.5834 49.8745L0.69458 27.7366C0.615244 27.5888 0.615244 27.4112 0.694579 27.2634L12.5834 5.12545L12.6429 5.01465V4.88889V1C12.6429 0.723858 12.8667 0.5 13.1429 0.5L88.8571 0.5C89.1333 0.5 89.3571 0.723858 89.3571 1V4.88889Z" stroke="black" stroke-opacity="0.05"/>
<mask id="mask0" mask-type="alpha" maskUnits="userSpaceOnUse" x="0" y="0" width="102" height="55">
<path d="M12.1429 1C12.1429 0.447716 12.5906 0 13.1429 0L88.8571 0C89.4094 0 89.8571 0.447715 89.8571 1V4.88889L101.728 25.2006C101.898 25.4915 101.91 25.8484 101.76 26.1501L89.8571 50.1111V54C89.8571 54.5523 89.4094 55 88.8571 55L13.1429 55C12.5906 55 12.1429 54.5523 12.1429 54V50.1111L0.254082 27.9731C0.0954109 27.6777 0.0954101 27.3223 0.254081 27.0269L12.1429 4.88889V1Z" fill="black"/>
<path d="M89.3571 4.88889V5.02428L89.4255 5.14117L101.296 25.4529C101.381 25.5983 101.387 25.7768 101.312 25.9276L89.4093 49.8887L89.3571 49.9938V50.1111V54C89.3571 54.2761 89.1333 54.5 88.8571 54.5L13.1429 54.5C12.8667 54.5 12.6429 54.2761 12.6429 54V50.1111V49.9853L12.5834 49.8745L0.69458 27.7366C0.615244 27.5888 0.615244 27.4112 0.694579 27.2634L12.5834 5.12545L12.6429 5.01465V4.88889V1C12.6429 0.723858 12.8667 0.5 13.1429 0.5L88.8571 0.5C89.1333 0.5 89.3571 0.723858 89.3571 1V4.88889Z" stroke="black" stroke-opacity="0.05"/>
</mask>
<g mask="url(#mask0)">
<path d="M19.0312 36.8789C19.4141 36.9805 19.707 37.1615 19.9102 37.4219C20.1133 37.6797 20.2148 38.0026 20.2148 38.3906C20.2148 38.9271 20.0339 39.349 19.6719 39.6562C19.3125 39.9609 18.8138 40.1133 18.1758 40.1133C17.9076 40.1133 17.6341 40.0885 17.3555 40.0391C17.0768 39.9896 16.8034 39.918 16.5352 39.8242V39.0391C16.8008 39.1771 17.0625 39.2799 17.3203 39.3477C17.5781 39.4154 17.8346 39.4492 18.0898 39.4492C18.5221 39.4492 18.8542 39.3516 19.0859 39.1562C19.3177 38.9609 19.4336 38.6797 19.4336 38.3125C19.4336 37.974 19.3177 37.7057 19.0859 37.5078C18.8542 37.3073 18.5404 37.207 18.1445 37.207H17.543V36.5586H18.1445C18.5065 36.5586 18.7891 36.4792 18.9922 36.3203C19.1953 36.1615 19.2969 35.9401 19.2969 35.6562C19.2969 35.3568 19.2018 35.1276 19.0117 34.9688C18.8242 34.8073 18.556 34.7266 18.207 34.7266C17.9753 34.7266 17.7357 34.7526 17.4883 34.8047C17.2409 34.8568 16.9818 34.9349 16.7109 35.0391V34.3125C17.026 34.2292 17.306 34.1667 17.5508 34.125C17.7982 34.0833 18.0169 34.0625 18.207 34.0625C18.7747 34.0625 19.2279 34.2057 19.5664 34.4922C19.9076 34.776 20.0781 35.1536 20.0781 35.625C20.0781 35.9453 19.9883 36.2122 19.8086 36.4258C19.6315 36.6393 19.3724 36.7904 19.0312 36.8789ZM23.2266 34.8633L22.3945 37.8477H24.0586L23.2266 34.8633ZM22.75 34.168H23.707L25.4922 40H24.6758L24.2461 38.4805H22.2031L21.7812 40H20.9648L22.75 34.168ZM30.9961 34.168H34.7422V40H33.9492V34.832H31.7891V40H30.9961V34.168ZM38.8164 37.0898C38.8164 36.2331 38.7279 35.6211 38.5508 35.2539C38.3763 34.8867 38.0885 34.7031 37.6875 34.7031C37.2891 34.7031 37.0013 34.8867 36.8242 35.2539C36.6497 35.6211 36.5625 36.2331 36.5625 37.0898C36.5625 37.944 36.6497 38.5547 36.8242 38.9219C37.0013 39.2891 37.2891 39.4727 37.6875 39.4727C38.0885 39.4727 38.3763 39.2904 38.5508 38.9258C38.7279 38.5586 38.8164 37.9466 38.8164 37.0898ZM39.6406 37.0898C39.6406 38.1055 39.4792 38.8633 39.1562 39.3633C38.8359 39.8633 38.3464 40.1133 37.6875 40.1133C37.0286 40.1133 36.5391 39.8646 36.2188 39.3672C35.8984 38.8698 35.7383 38.1107 35.7383 37.0898C35.7383 36.0716 35.8984 35.3125 36.2188 34.8125C36.5417 34.3125 37.0312 34.0625 37.6875 34.0625C38.3464 34.0625 38.8359 34.3125 39.1562 34.8125C39.4792 35.3125 39.6406 36.0716 39.6406 37.0898ZM40.6367 34.168H41.4297V36.7617L43.8945 34.168H44.8203L42.5508 36.5508L44.8867 40H43.9336L42.0312 37.0781L41.4297 37.7188V40H40.6367V34.168ZM47.8164 38.3398C47.6628 38.7513 47.4961 39.1016 47.3164 39.3906C47.2018 39.5833 47.0456 39.7357 46.8477 39.8477C46.668 39.9492 46.4583 40 46.2188 40H45.6406V39.3281H46.0664C46.2773 39.3281 46.4427 39.2669 46.5625 39.1445C46.6797 39.0247 46.7826 38.8646 46.8711 38.6641C46.9076 38.5807 46.9453 38.4844 46.9844 38.375L45.3281 34.168H46.1758L47.3906 37.4102L48.5938 34.168H49.4258L47.8164 38.3398ZM50.2773 34.168H54.0234V40H53.2305V34.832H51.0703V40H50.2773V34.168ZM55.0977 34.168H55.8906V36.7617L58.3555 34.168H59.2812L57.0117 36.5508L59.3477 40H58.3945L56.4922 37.0781L55.8906 37.7188V40H55.0977V34.168ZM62.2773 38.3398C62.1237 38.7513 61.957 39.1016 61.7773 39.3906C61.6628 39.5833 61.5065 39.7357 61.3086 39.8477C61.1289 39.9492 60.9193 40 60.6797 40H60.1016V39.3281H60.5273C60.7383 39.3281 60.9036 39.2669 61.0234 39.1445C61.1406 39.0247 61.2435 38.8646 61.332 38.6641C61.3685 38.5807 61.4062 38.4844 61.4453 38.375L59.7891 34.168H60.6367L61.8516 37.4102L63.0547 34.168H63.8867L62.2773 38.3398ZM70.4648 37.2148V39.3516H71.3984C71.8568 39.3516 72.1836 39.2721 72.3789 39.1133C72.5742 38.9518 72.6719 38.6875 72.6719 38.3203C72.6719 37.9401 72.569 37.6615 72.3633 37.4844C72.1576 37.3047 71.8359 37.2148 71.3984 37.2148H70.4648ZM73.1953 34.8164H70.4648V36.5742H71.3828C72.3698 36.6133 72.9948 36.8815 73.2578 37.3789C73.3958 37.6393 73.4648 37.9792 73.4648 38.3984C73.4648 38.9271 73.2917 39.3255 72.9453 39.5938C72.599 39.8646 72.0833 40 71.3984 40H69.6719V34.168H73.1953V34.8164ZM74.3867 40V34.168H75.1484V38.9688L77.1172 34.168H78.1172V40H77.3555V35.1992L75.3867 40H74.3867ZM80.5508 34.832V35.8086C80.5508 36.6549 80.5352 37.4102 80.5039 38.0742C80.4753 38.7383 80.3281 39.2253 80.0625 39.5352C79.7995 39.8451 79.3385 40 78.6797 40V39.3594C79.0391 39.3594 79.2956 39.2669 79.4492 39.082C79.6029 38.8945 79.6927 38.5299 79.7188 37.9883C79.7448 37.444 79.7578 36.7253 79.7578 35.832V34.168H82.9375V40H82.1445V34.832H80.5508ZM84.2539 34.168H87.7148V34.832H85.043V36.4023H87.5977V37.0664H85.043V39.3359H87.7891V40H84.2539V34.168ZM88.4883 34.168H92.9375V34.832H91.1133V40H90.3203V34.832H88.4883V34.168ZM95.5312 34.8633L94.6992 37.8477H96.3633L95.5312 34.8633ZM95.0547 34.168H96.0117L97.7969 40H96.9805L96.5508 38.4805H94.5078L94.0859 40H93.2695L95.0547 34.168ZM19.0312 45.8789C19.4141 45.9805 19.707 46.1615 19.9102 46.4219C20.1133 46.6797 20.2148 47.0026 20.2148 47.3906C20.2148 47.9271 20.0339 48.349 19.6719 48.6562C19.3125 48.9609 18.8138 49.1133 18.1758 49.1133C17.9076 49.1133 17.6341 49.0885 17.3555 49.0391C17.0768 48.9896 16.8034 48.918 16.5352 48.8242V48.0391C16.8008 48.1771 17.0625 48.2799 17.3203 48.3477C17.5781 48.4154 17.8346 48.4492 18.0898 48.4492C18.5221 48.4492 18.8542 48.3516 19.0859 48.1562C19.3177 47.9609 19.4336 47.6797 19.4336 47.3125C19.4336 46.974 19.3177 46.7057 19.0859 46.5078C18.8542 46.3073 18.5404 46.207 18.1445 46.207H17.543V45.5586H18.1445C18.5065 45.5586 18.7891 45.4792 18.9922 45.3203C19.1953 45.1615 19.2969 44.9401 19.2969 44.6562C19.2969 44.3568 19.2018 44.1276 19.0117 43.9688C18.8242 43.8073 18.556 43.7266 18.207 43.7266C17.9753 43.7266 17.7357 43.7526 17.4883 43.8047C17.2409 43.8568 16.9818 43.9349 16.7109 44.0391V43.3125C17.026 43.2292 17.306 43.1667 17.5508 43.125C17.7982 43.0833 18.0169 43.0625 18.207 43.0625C18.7747 43.0625 19.2279 43.2057 19.5664 43.4922C19.9076 43.776 20.0781 44.1536 20.0781 44.625C20.0781 44.9453 19.9883 45.2122 19.8086 45.4258C19.6315 45.6393 19.3724 45.7904 19.0312 45.8789ZM23.2266 43.8633L22.3945 46.8477H24.0586L23.2266 43.8633ZM22.75 43.168H23.707L25.4922 49H24.6758L24.2461 47.4805H22.2031L21.7812 49H20.9648L22.75 43.168ZM27.1992 43.8164V46.0078H28.1133C28.4779 46.0078 28.7617 45.9115 28.9648 45.7188C29.1706 45.526 29.2734 45.2565 29.2734 44.9102C29.2734 44.5638 29.1719 44.2956 28.9688 44.1055C28.7656 43.9128 28.4805 43.8164 28.1133 43.8164H27.1992ZM26.4102 43.168H28.1133C28.7643 43.168 29.2578 43.3164 29.5938 43.6133C29.9297 43.9076 30.0977 44.3398 30.0977 44.9102C30.0977 45.4857 29.9297 45.9206 29.5938 46.2148C29.2604 46.5091 28.7669 46.6562 28.1133 46.6562H27.1992V49H26.4102V43.168ZM32.8672 43.8633L32.0352 46.8477H33.6992L32.8672 43.8633ZM32.3906 43.168H33.3477L35.1328 49H34.3164L33.8867 47.4805H31.8438L31.4219 49H30.6055L32.3906 43.168ZM35.8164 43.168H36.6094V45.4023H38.7695V43.168H39.5625V49H38.7695V46.0664H36.6094V49H35.8164V43.168ZM40.8711 43.168H44.332V43.832H41.6602V45.4023H44.2148V46.0664H41.6602V48.3359H44.4062V49H40.8711V43.168ZM45.6914 43.168H49.1523V43.832H46.4805V45.4023H49.0352V46.0664H46.4805V48.3359H49.2266V49H45.6914V43.168Z" fill="black"/>
<path d="M16.632 18.208V16.644H30.436V18.208H16.632ZM34.0044 26.572L43.2184 17.46C44.5104 16.168 45.4397 14.9893 46.0064 13.924C46.5731 12.8587 46.8564 11.7027 46.8564 10.456C46.8564 8.93733 46.3577 7.736 45.3604 6.852C44.3857 5.94533 43.0597 5.492 41.3824 5.492C39.8637 5.492 38.5944 5.97933 37.5744 6.954C36.5771 7.906 36.0784 9.18667 36.0784 10.796C36.0784 11.34 36.1691 11.85 36.3504 12.326L34.5144 12.632C34.2424 11.9293 34.1064 11.2267 34.1064 10.524C34.1064 8.688 34.7751 7.10133 36.1124 5.764C37.4724 4.404 39.2517 3.724 41.4504 3.724C43.7397 3.724 45.5417 4.34733 46.8564 5.594C48.1711 6.818 48.8284 8.39333 48.8284 10.32C48.8284 11.748 48.5111 13.0967 47.8764 14.366C47.2417 15.6353 46.1084 17.086 44.4764 18.718L37.2344 25.96H48.9984V28H34.0044V26.572ZM69.3081 7.158C71.2121 9.42467 72.1641 12.4053 72.1641 16.1C72.1641 19.7947 71.2121 22.7867 69.3081 25.076C67.4268 27.3427 64.9901 28.476 61.9981 28.476C59.0061 28.476 56.5581 27.3313 54.6541 25.042C52.7728 22.7527 51.8321 19.772 51.8321 16.1C51.8321 12.428 52.7728 9.44733 54.6541 7.158C56.5581 4.86867 59.0061 3.724 61.9981 3.724C64.9901 3.724 67.4268 4.86867 69.3081 7.158ZM56.0821 23.852C57.6234 25.756 59.5954 26.708 61.9981 26.708C64.4008 26.708 66.3614 25.756 67.8801 23.852C69.4214 21.9253 70.1921 19.3413 70.1921 16.1C70.1921 12.8587 69.4214 10.286 67.8801 8.382C66.3614 6.45533 64.4008 5.492 61.9981 5.492C59.5954 5.492 57.6234 6.45533 56.0821 8.382C54.5634 10.286 53.8041 12.8587 53.8041 16.1C53.8041 19.3413 54.5634 21.9253 56.0821 23.852ZM92.362 26.776C91.2966 25.62 90.764 24.2033 90.764 22.526C90.764 20.8487 91.2966 19.4433 92.362 18.31C93.45 17.154 94.8326 16.576 96.51 16.576C98.1873 16.576 99.5586 17.154 100.624 18.31C101.712 19.4433 102.256 20.8487 102.256 22.526C102.256 24.2033 101.712 25.62 100.624 26.776C99.5586 27.9093 98.1873 28.476 96.51 28.476C94.8326 28.476 93.45 27.9093 92.362 26.776ZM93.654 19.466C92.9513 20.2367 92.6 21.2567 92.6 22.526C92.6 23.7953 92.9513 24.8267 93.654 25.62C94.3793 26.3907 95.3313 26.776 96.51 26.776C97.6886 26.776 98.6293 26.3907 99.332 25.62C100.057 24.8267 100.42 23.7953 100.42 22.526C100.42 21.2567 100.057 20.2367 99.332 19.466C98.6293 18.6727 97.6886 18.276 96.51 18.276C95.3313 18.276 94.3793 18.6727 93.654 19.466ZM77.368 13.924C76.3026 12.768 75.77 11.3513 75.77 9.674C75.77 7.99667 76.3026 6.59133 77.368 5.458C78.456 4.302 79.8386 3.724 81.516 3.724C83.1933 3.724 84.5646 4.302 85.63 5.458C86.718 6.59133 87.262 7.99667 87.262 9.674C87.262 11.3513 86.718 12.768 85.63 13.924C84.5646 15.0573 83.1933 15.624 81.516 15.624C79.8386 15.624 78.456 15.0573 77.368 13.924ZM78.66 6.614C77.9573 7.38467 77.606 8.40467 77.606 9.674C77.606 10.9433 77.9573 11.9747 78.66 12.768C79.3853 13.5387 80.3373 13.924 81.516 13.924C82.6946 13.924 83.6353 13.5387 84.338 12.768C85.0633 11.9747 85.426 10.9433 85.426 9.674C85.426 8.40467 85.0633 7.38467 84.338 6.614C83.6353 5.82067 82.6946 5.424 81.516 5.424C80.3373 5.424 79.3853 5.82067 78.66 6.614ZM82.332 27.898L80.938 26.946L95.694 4.302L97.088 5.254L82.332 27.898Z" fill="black"/>
</g>
</svg>
