<svg width="100" height="51" viewBox="0 0 100 51" fill="none" xmlns="http://www.w3.org/2000/svg">
<path d="M9.00515 3.00087C9.135 1.34911 10.4614 0 12.1182 0H87.1692C88.826 0 90.1524 1.34911 90.2823 3.00087C91.3289 16.314 99.2874 17.3163 99.2874 25.835C99.2874 34.3104 91.4095 35.3456 90.2988 47.6537C90.1498 49.3038 88.826 50.6568 87.1692 50.6568H12.1182C10.4614 50.6568 9.13759 49.3038 8.98868 47.6537C7.87794 35.3456 0 34.3104 0 25.835C0 17.3163 7.95854 16.314 9.00515 3.00087Z" fill="#F9FBF8"/>
<path d="M9.50361 3.04006C9.61511 1.62174 10.7483 0.5 12.1182 0.5H87.1692C88.5392 0.5 89.6723 1.62174 89.7838 3.04006C90.3169 9.82043 92.6207 13.4857 94.77 16.5058C94.9438 16.75 95.1158 16.9892 95.2853 17.2248C97.2038 19.8921 98.7874 22.0939 98.7874 25.835C98.7874 29.6458 97.1426 31.8623 95.1782 34.5094C95.0557 34.6745 94.932 34.8413 94.8073 35.0102C92.6746 37.9 90.368 41.3238 89.8008 47.6088C89.6723 49.0323 88.5372 50.1568 87.1692 50.1568H12.1182C10.7502 50.1568 9.61512 49.0323 9.48665 47.6088C8.91947 41.3238 6.61284 37.9 4.48011 35.0102C4.35545 34.8413 4.23171 34.6745 4.10922 34.5094C2.14481 31.8623 0.5 29.6458 0.5 25.835C0.5 22.0939 2.08365 19.8921 4.00213 17.2248C4.17158 16.9892 4.34365 16.75 4.51747 16.5058C6.66675 13.4857 8.97057 9.82043 9.50361 3.04006Z" stroke="black" stroke-opacity="0.05"/>
<rect x="24.3154" y="1.01367" width="1.01314" height="3.03941" fill="#EDEEEC"/>
<rect x="24.3154" y="46.6045" width="1.01314" height="3.03941" fill="#EDEEEC"/>
<rect x="73.959" y="1.01367" width="1.01314" height="3.03941" fill="#EDEEEC"/>
<rect x="73.959" y="46.6045" width="1.01314" height="3.03941" fill="#EDEEEC"/>
<g opacity="0.05">
<path d="M10.4436 26.6041L11.6796 27.4921C11.1516 28.3001 10.6076 28.8801 10.0476 29.2321C9.48755 29.5761 8.76755 29.7481 7.88755 29.7481C6.63955 29.7481 5.61155 29.3441 4.80355 28.5361C3.99555 27.7281 3.59155 26.6761 3.59155 25.3801C3.59155 24.0921 4.00355 23.0441 4.82755 22.2361C5.65955 21.4201 6.69955 21.0121 7.94755 21.0121C8.80355 21.0121 9.55955 21.2161 10.2156 21.6241C10.8716 22.0241 11.3436 22.5521 11.6316 23.2081L10.3476 24.1321C9.82755 23.0281 9.01155 22.4761 7.89955 22.4761C7.13955 22.4761 6.49955 22.7441 5.97955 23.2801C5.45955 23.8081 5.19955 24.5081 5.19955 25.3801C5.19955 26.2281 5.45955 26.9241 5.97955 27.4681C6.49955 28.0121 7.13955 28.2841 7.89955 28.2841C8.99555 28.2841 9.84355 27.7241 10.4436 26.6041ZM19.365 21.1801V29.5801H17.829V23.5441L17.469 24.2041L13.965 29.5801H12.357V21.1801H13.893V27.1801L14.253 26.5201L17.757 21.1801H19.365ZM19.9548 29.4961L20.2428 28.0441C20.4028 28.1321 20.5748 28.1761 20.7588 28.1761C21.0788 28.1761 21.2588 28.0081 21.2988 27.6721L22.0308 21.1801H27.3588V29.5801H25.7748V22.5961H23.4348L22.8228 28.0801C22.7668 28.5761 22.5828 28.9641 22.2708 29.2441C21.9588 29.5241 21.5748 29.6641 21.1188 29.6641C20.6468 29.6641 20.2588 29.6081 19.9548 29.4961ZM27.5917 29.5801L30.9877 21.1801H32.4997L35.8957 29.5801H34.2037L33.3637 27.3841H30.1237L29.2837 29.5801H27.5917ZM31.4317 23.9521L30.6637 25.9681H32.8237L32.0557 23.9521C31.9517 23.6801 31.8477 23.3761 31.7437 23.0401L31.4317 23.9521Z" fill="black"/>
<path d="M59.0572 29.2236V20.8236H62.5132C63.3692 20.8236 64.0292 21.0036 64.4932 21.3636C64.9652 21.7236 65.2012 22.2276 65.2012 22.8756C65.2012 23.2836 65.0892 23.6436 64.8652 23.9556C64.6492 24.2596 64.3732 24.4956 64.0372 24.6636C65.0452 25.0636 65.5492 25.7436 65.5492 26.7036C65.5492 27.4716 65.2612 28.0836 64.6852 28.5396C64.1172 28.9956 63.4132 29.2236 62.5732 29.2236H59.0572ZM60.6412 25.4796V27.8076H62.4772C63.4692 27.8076 63.9652 27.4196 63.9652 26.6436C63.9652 25.8676 63.4692 25.4796 62.4772 25.4796H60.6412ZM60.6412 22.2156V24.0876H62.3932C62.8332 24.0876 63.1532 24.0116 63.3532 23.8596C63.5612 23.7076 63.6652 23.4716 63.6652 23.1516C63.6652 22.8316 63.5612 22.5956 63.3532 22.4436C63.1532 22.2916 62.8332 22.2156 62.3932 22.2156H60.6412ZM66.315 29.2236V20.8236H72.111V22.2396H67.899V24.1716H71.775V25.5876H67.899V27.8076H72.147V29.2236H66.315ZM72.5138 22.2876V20.8236H79.2338V22.2876H76.6658V29.2236H75.0818V22.2876H72.5138ZM79.7993 29.2236V20.8236H83.6153C84.5833 20.8236 85.3473 21.0636 85.9073 21.5436C86.4753 22.0156 86.7593 22.6876 86.7593 23.5596C86.7593 24.4316 86.4753 25.1076 85.9073 25.5876C85.3473 26.0596 84.5833 26.2956 83.6153 26.2956H81.3833V29.2236H79.7993ZM81.3833 22.2396V24.8796H83.5673C84.1033 24.8796 84.5033 24.7636 84.7673 24.5316C85.0393 24.2916 85.1753 23.9676 85.1753 23.5596C85.1753 23.1516 85.0393 22.8316 84.7673 22.5996C84.5033 22.3596 84.1033 22.2396 83.5673 22.2396H81.3833ZM85.7021 29.2236L89.0981 20.8236H90.6101L94.0061 29.2236H92.3141L91.4741 27.0276H88.2341L87.3941 29.2236H85.7021ZM89.5421 23.5956L88.7741 25.6116H90.9341L90.1661 23.5956C90.0621 23.3236 89.9581 23.0196 89.8541 22.6836L89.5421 23.5956Z" fill="black"/>
<path d="M44.3315 24.9283V26.1043L39.0875 28.6843V27.1843L42.6755 25.5163L39.0875 23.8483V22.3603L44.3315 24.9283ZM50.1479 24.9283V26.1043L44.9039 28.6843V27.1843L48.4919 25.5163L44.9039 23.8483V22.3603L50.1479 24.9283ZM55.9643 24.9283V26.1043L50.7203 28.6843V27.1843L54.3083 25.5163L50.7203 23.8483V22.3603L55.9643 24.9283Z" fill="black"/>
</g>
</svg>
