<svg width="90" height="56" viewBox="0 0 90 56" fill="none" xmlns="http://www.w3.org/2000/svg">
<mask id="path-1-inside-1" fill="white">
<path fill-rule="evenodd" clip-rule="evenodd" d="M54 0C54 4.97056 49.9706 9 45 9C40.0294 9 36 4.97056 36 0H0V56H36C36 51.0294 40.0294 47 45 47C49.9706 47 54 51.0294 54 56H90V0H54Z"/>
</mask>
<path fill-rule="evenodd" clip-rule="evenodd" d="M54 0C54 4.97056 49.9706 9 45 9C40.0294 9 36 4.97056 36 0H0V56H36C36 51.0294 40.0294 47 45 47C49.9706 47 54 51.0294 54 56H90V0H54Z" fill="#C4EFF8"/>
<path d="M54 0V-1H53V0H54ZM36 0H37V-1H36V0ZM0 0V-1H-1V0H0ZM0 56H-1V57H0V56ZM36 56V57H37V56H36ZM54 56H53V57H54V56ZM90 56V57H91V56H90ZM90 0H91V-1H90V0ZM45 10C50.5228 10 55 5.52285 55 0H53C53 4.41828 49.4183 8 45 8V10ZM35 0C35 5.52285 39.4772 10 45 10V8C40.5817 8 37 4.41828 37 0H35ZM0 1H36V-1H0V1ZM1 56V0H-1V56H1ZM36 55H0V57H36V55ZM37 56C37 51.5817 40.5817 48 45 48V46C39.4772 46 35 50.4772 35 56H37ZM45 48C49.4183 48 53 51.5817 53 56H55C55 50.4772 50.5228 46 45 46V48ZM90 55H54V57H90V55ZM89 0V56H91V0H89ZM54 1H90V-1H54V1Z" fill="black" fill-opacity="0.05" mask="url(#path-1-inside-1)"/>
<path d="M72.86 9.173V8.507L68.54 6.59V7.4L71.834 8.849L68.54 10.271V11.09L72.86 9.173ZM78.2565 9.173V8.507L73.9365 6.59V7.4L77.2305 8.849L73.9365 10.271V11.09L78.2565 9.173ZM83.653 9.173V8.507L79.333 6.59V7.4L82.627 8.849L79.333 10.271V11.09L83.653 9.173Z" fill="#262626"/>
<path d="M5.585 10.11H9.815V9.39H5.585V10.11ZM11.6385 7.77L13.0965 6.915V11.334H10.9005V12H15.6435V11.334H13.8165V6.15H13.0965L11.1615 7.284L11.6385 7.77ZM18.493 12.09C19.843 12.09 20.752 10.884 20.752 9.084C20.752 7.266 19.843 6.06 18.493 6.06C17.134 6.06 16.234 7.266 16.234 9.084C16.234 10.884 17.134 12.09 18.493 12.09ZM16.963 9.084C16.963 7.653 17.566 6.699 18.493 6.699C18.88 6.699 19.213 6.87 19.474 7.176L17.188 10.425C17.044 10.056 16.963 9.597 16.963 9.084ZM20.023 9.084C20.023 10.497 19.411 11.451 18.493 11.451C18.115 11.451 17.791 11.289 17.539 11.01L19.807 7.779C19.951 8.139 20.023 8.58 20.023 9.084ZM22.6565 6.06C21.9095 6.06 21.2795 6.681 21.2795 7.428C21.2795 8.184 21.9095 8.805 22.6565 8.805C23.4125 8.805 24.0335 8.184 24.0335 7.428L25.3835 6.87L21.2885 11.325L21.7295 11.766L26.3735 6.726L26.0045 6.195L23.9075 6.861C23.6915 6.393 23.2055 6.06 22.6565 6.06ZM22.6565 6.717C23.0525 6.717 23.3765 7.041 23.3765 7.428C23.3765 7.833 23.0525 8.148 22.6565 8.148C22.2605 8.148 21.9365 7.833 21.9365 7.428C21.9365 7.041 22.2605 6.717 22.6565 6.717ZM25.1225 9.075C24.3755 9.075 23.7455 9.696 23.7455 10.443C23.7455 11.199 24.3755 11.82 25.1225 11.82C25.8785 11.82 26.4995 11.199 26.4995 10.443C26.4995 9.696 25.8785 9.075 25.1225 9.075ZM25.1225 9.732C25.5185 9.732 25.8425 10.056 25.8425 10.443C25.8425 10.848 25.5185 11.163 25.1225 11.163C24.7265 11.163 24.4025 10.848 24.4025 10.443C24.4025 10.056 24.7265 9.732 25.1225 9.732Z" fill="#262626"/>
<path d="M11.86 47.173V46.507L7.54 44.59V45.4L10.834 46.849L7.54 48.271V49.09L11.86 47.173ZM17.2565 47.173V46.507L12.9365 44.59V45.4L16.2305 46.849L12.9365 48.271V49.09L17.2565 47.173ZM22.653 47.173V46.507L18.333 44.59V45.4L21.627 46.849L18.333 48.271V49.09L22.653 47.173Z" fill="#262626"/>
<path d="M63.585 47.11H67.815V46.39H63.585V47.11ZM69.6385 44.77L71.0965 43.915V48.334H68.9005V49H73.6435V48.334H71.8165V43.15H71.0965L69.1615 44.284L69.6385 44.77ZM76.493 49.09C77.843 49.09 78.752 47.884 78.752 46.084C78.752 44.266 77.843 43.06 76.493 43.06C75.134 43.06 74.234 44.266 74.234 46.084C74.234 47.884 75.134 49.09 76.493 49.09ZM74.963 46.084C74.963 44.653 75.566 43.699 76.493 43.699C76.88 43.699 77.213 43.87 77.474 44.176L75.188 47.425C75.044 47.056 74.963 46.597 74.963 46.084ZM78.023 46.084C78.023 47.497 77.411 48.451 76.493 48.451C76.115 48.451 75.791 48.289 75.539 48.01L77.807 44.779C77.951 45.139 78.023 45.58 78.023 46.084ZM80.6565 43.06C79.9095 43.06 79.2795 43.681 79.2795 44.428C79.2795 45.184 79.9095 45.805 80.6565 45.805C81.4125 45.805 82.0335 45.184 82.0335 44.428L83.3835 43.87L79.2885 48.325L79.7295 48.766L84.3735 43.726L84.0045 43.195L81.9075 43.861C81.6915 43.393 81.2055 43.06 80.6565 43.06ZM80.6565 43.717C81.0525 43.717 81.3765 44.041 81.3765 44.428C81.3765 44.833 81.0525 45.148 80.6565 45.148C80.2605 45.148 79.9365 44.833 79.9365 44.428C79.9365 44.041 80.2605 43.717 80.6565 43.717ZM83.1225 46.075C82.3755 46.075 81.7455 46.696 81.7455 47.443C81.7455 48.199 82.3755 48.82 83.1225 48.82C83.8785 48.82 84.4995 48.199 84.4995 47.443C84.4995 46.696 83.8785 46.075 83.1225 46.075ZM83.1225 46.732C83.5185 46.732 83.8425 47.056 83.8425 47.443C83.8425 47.848 83.5185 48.163 83.1225 48.163C82.7265 48.163 82.4025 47.848 82.4025 47.443C82.4025 47.056 82.7265 46.732 83.1225 46.732Z" fill="#262626"/>
<path d="M25.4265 19.15V25H26.1465V19.816H28.6125V25H29.3325V19.15H25.4265ZM31.576 25V22.543H33.205C34.033 22.543 34.816 21.913 34.816 20.779C34.816 19.843 34.168 19.15 33.232 19.15H30.856V25H31.576ZM33.07 19.816C33.655 19.816 34.069 20.221 34.069 20.824C34.069 21.4 33.601 21.877 33.061 21.877H31.576V19.816H33.07ZM37.5725 25.09C38.9225 25.09 39.8315 23.884 39.8315 22.084C39.8315 20.266 38.9225 19.06 37.5725 19.06C36.2135 19.06 35.3135 20.266 35.3135 22.084C35.3135 23.884 36.2135 25.09 37.5725 25.09ZM37.5725 24.406C36.6635 24.406 36.0695 23.47 36.0695 22.084C36.0695 20.68 36.6635 19.744 37.5725 19.744C38.4725 19.744 39.0755 20.68 39.0755 22.084C39.0755 23.47 38.4725 24.406 37.5725 24.406ZM42.0929 22.795H43.2179L44.1359 19.654V25H44.8289V19.15H43.5689L42.6779 22.3L41.7779 19.15H40.5089V25H41.2019V19.618L42.0929 22.795ZM47.7654 25.09C49.1154 25.09 50.0244 23.884 50.0244 22.084C50.0244 20.266 49.1154 19.06 47.7654 19.06C46.4064 19.06 45.5064 20.266 45.5064 22.084C45.5064 23.884 46.4064 25.09 47.7654 25.09ZM47.7654 24.406C46.8564 24.406 46.2624 23.47 46.2624 22.084C46.2624 20.68 46.8564 19.744 47.7654 19.744C48.6654 19.744 49.2684 20.68 49.2684 22.084C49.2684 23.47 48.6654 24.406 47.7654 24.406ZM54.4999 25H55.4359L53.2039 21.877L55.2919 19.15H54.4099L52.5559 21.589H51.7189V19.15H50.9989V25H51.7189V22.255H52.5379L54.4999 25ZM57.9584 25.09C59.3084 25.09 60.2174 23.884 60.2174 22.084C60.2174 20.266 59.3084 19.06 57.9584 19.06C56.5994 19.06 55.6994 20.266 55.6994 22.084C55.6994 23.884 56.5994 25.09 57.9584 25.09ZM57.9584 24.406C57.0494 24.406 56.4554 23.47 56.4554 22.084C56.4554 20.68 57.0494 19.744 57.9584 19.744C58.8584 19.744 59.4614 20.68 59.4614 22.084C59.4614 23.47 58.8584 24.406 57.9584 24.406ZM61.6779 19.15C61.6779 23.326 61.6149 23.839 60.9939 24.334H60.7239V26.08H61.4169V25H64.7739V26.08H65.4669V24.334H64.7739V19.15H61.6779ZM61.8849 24.334C62.3169 23.731 62.3889 22.651 62.3979 19.816H64.0539V24.334H61.8849Z" fill="#262626"/>
<path d="M20.8406 31.15C20.8406 35.326 20.7776 35.839 20.1566 36.334H19.8866V38.08H20.5796V37H23.9366V38.08H24.6296V36.334H23.9366V31.15H20.8406ZM21.0476 36.334C21.4796 35.731 21.5516 34.651 21.5606 31.816H23.2166V36.334H21.0476ZM26.0001 31.15C26.0001 35.416 25.9641 36.037 25.0461 36.442L25.3521 37.135C26.5581 36.64 26.7111 35.83 26.7201 31.816H28.5561V37H29.2761V31.15H26.0001ZM30.4125 32.896C30.4125 33.76 30.9075 34.21 31.5465 34.408L30.1245 37H30.9525L32.2575 34.516C32.2935 34.516 32.3205 34.516 32.3475 34.516H33.6165V37H34.3365V31.15H32.1765C31.1505 31.15 30.4125 31.744 30.4125 32.896ZM32.4645 33.895C31.7355 33.895 31.1595 33.598 31.1595 32.851C31.1595 32.023 31.7625 31.771 32.3385 31.771H33.6165V33.895H32.4645ZM41.2265 31.15C41.2265 35.326 41.1635 35.839 40.5425 36.334H40.2725V38.08H40.9655V37H44.3225V38.08H45.0155V36.334H44.3225V31.15H41.2265ZM41.4335 36.334C41.8655 35.731 41.9375 34.651 41.9465 31.816H43.6025V36.334H41.4335ZM46.8 37V34.543H48.429C49.257 34.543 50.04 33.913 50.04 32.779C50.04 31.843 49.392 31.15 48.456 31.15H46.08V37H46.8ZM48.294 31.816C48.879 31.816 49.293 32.221 49.293 32.824C49.293 33.4 48.825 33.877 48.285 33.877H46.8V31.816H48.294ZM53.2735 35.884L55.2535 31.15H54.4975L53.0035 34.786C52.4635 33.517 51.8425 32.041 51.4735 31.15H50.6905C51.2935 32.554 52.1305 34.489 52.6345 35.677C52.4005 36.244 52.1935 36.46 51.8785 36.46C51.6355 36.46 51.3925 36.298 51.3115 36.064L50.8615 36.586C51.0415 36.91 51.4015 37.09 51.8695 37.09C52.5355 37.09 52.9045 36.775 53.2735 35.884ZM59.765 35.371C59.765 34.732 59.36 34.219 58.712 33.985C59.252 33.724 59.558 33.193 59.558 32.617C59.558 31.735 58.892 31.06 57.758 31.06C56.912 31.06 56.246 31.402 55.904 31.906L56.372 32.392C56.642 31.969 57.065 31.744 57.659 31.744C58.37 31.744 58.811 32.149 58.811 32.725C58.811 33.346 58.388 33.706 57.659 33.706H56.894V34.318H57.686C58.496 34.318 59.018 34.633 59.018 35.335C59.018 36.091 58.379 36.397 57.758 36.397C56.984 36.397 56.507 36.109 56.201 35.596L55.58 36.046C55.967 36.667 56.624 37.09 57.668 37.09C58.937 37.09 59.765 36.496 59.765 35.371ZM61.3875 37H65.0325V36.334H62.1075V34.255H64.3485V33.589H62.1075V31.816H64.9965V31.15H61.3875V37ZM68.6349 29.35C68.6349 29.674 68.3829 29.917 68.0679 29.917C67.7529 29.917 67.5009 29.674 67.5009 29.35H66.8979C66.8979 29.998 67.4379 30.511 68.0679 30.511C68.7159 30.511 69.2379 29.998 69.2379 29.35H68.6349ZM69.3459 37H70.0389V31.15H68.8599L66.8259 36.208V31.15H66.1329V37H67.1949L69.3459 31.645V37Z" fill="#262626"/>
<path opacity="0.1" fill-rule="evenodd" clip-rule="evenodd" d="M83 28L83 26H82V28V29V31H83L83 29H90V28H83Z" fill="black"/>
<path opacity="0.1" fill-rule="evenodd" clip-rule="evenodd" d="M8 28V26H7V28H0V29H7V31H8V29V28Z" fill="black"/>
</svg>
