<svg width="98" height="54" viewBox="0 0 98 54" fill="none" xmlns="http://www.w3.org/2000/svg">
<path d="M7.29787 0H90.7021C90.7021 10.8 98 12.42 98 26.46C98 40.5 91.0793 44.2706 90.7021 54H7.29787C7.29787 43.2 0 41.58 0 27.54C0 13.5 7.29787 10.8 7.29787 0Z" fill="#EB4375"/>
<path d="M7.79269 0.5H90.2073C90.3095 5.3768 91.902 8.41615 93.5463 11.5546C93.6666 11.7841 93.7871 12.0142 93.9074 12.2456C95.7123 15.718 97.5 19.5511 97.5 26.46C97.5 33.3812 95.7991 37.76 94.0373 41.6397C93.8377 42.0792 93.6366 42.5135 93.4367 42.9453C91.9281 46.2037 90.4835 49.3237 90.2266 53.5H7.79267C7.69047 48.6232 6.09803 45.5839 4.45369 42.4454C4.33341 42.2159 4.21285 41.9858 4.09258 41.7544C2.28768 38.282 0.5 34.4489 0.5 27.54C0.5 20.6274 2.2898 16.5212 4.09923 12.7723C4.21978 12.5226 4.3406 12.2741 4.46112 12.0263C6.10325 8.64922 7.69081 5.3844 7.79269 0.5Z" stroke="black" stroke-opacity="0.1"/>
<path d="M18.2301 13.139C17.9686 11.861 17.1044 11.06 15.9614 11.06C14.5484 11.06 13.6128 12.248 13.6134 14.039C13.614 15.866 14.5505 17.09 15.9635 17.09C17.0255 17.09 17.8532 16.406 18.1588 15.299L17.5287 14.876C17.358 15.812 16.7462 16.406 15.9632 16.406C14.9912 16.406 14.3339 15.452 14.3334 14.039C14.3329 12.662 14.9896 11.744 15.9616 11.744C16.7806 11.744 17.4108 12.401 17.5642 13.445L18.2301 13.139ZM22.7369 17H23.6729L21.4398 13.877L23.5269 11.15L22.6449 11.15L20.7917 13.589H19.9547L19.9539 11.15H19.2339L19.2359 17H19.9559L19.955 14.255H20.774L22.7369 17ZM27.7554 17H28.4484L28.4464 11.15H27.2674L25.2351 16.208L25.2334 11.15H24.5404L24.5424 17H25.6044L27.7535 11.645L27.7554 17ZM30.5128 11.15C30.5143 15.326 30.4515 15.839 29.8306 16.334H29.5606L29.5612 18.08H30.2542L30.2539 17H33.6109L33.6112 18.08H34.3042L34.3036 16.334H33.6106L33.6089 11.15H30.5128ZM30.7216 16.334C31.1534 15.731 31.2251 14.651 31.2331 11.816H32.8891L32.8906 16.334H30.7216ZM38.9264 17H39.8624L37.6293 13.877L39.7163 11.15H38.8343L36.9812 13.589H36.1442L36.1433 11.15H35.4233L35.4254 17H36.1454L36.1444 14.255L36.9634 14.255L38.9264 17ZM40.4348 17H41.1458L41.6403 15.362H43.7103L44.2058 17H44.9348L43.1058 11.15H42.2598L40.4348 17ZM41.847 14.696L42.6741 11.951L43.503 14.696H41.847ZM17.577 24.371C17.5768 23.732 17.1716 23.219 16.5235 22.985C17.0634 22.724 17.3692 22.193 17.369 21.617C17.3687 20.735 16.7025 20.06 15.5685 20.06C14.7225 20.06 14.0566 20.402 13.7148 20.906L14.1829 21.392C14.4528 20.969 14.8757 20.744 15.4697 20.744C16.1807 20.744 16.6219 21.149 16.6221 21.725C16.6223 22.346 16.1994 22.706 15.4704 22.706H14.7054L14.7056 23.318H15.4976C16.3076 23.318 16.8297 23.633 16.83 24.335C16.8302 25.091 16.1913 25.397 15.5703 25.397C14.7963 25.397 14.3192 25.109 14.0131 24.596L13.3922 25.046C13.7794 25.667 14.4366 26.09 15.4806 26.09C16.7496 26.09 17.5774 25.496 17.577 24.371ZM18.852 26H19.563L20.0575 24.362H22.1275L22.623 26H23.352L21.523 20.15H20.677L18.852 26ZM20.2642 23.696L21.0913 20.951L21.9202 23.696H20.2642ZM13.7536 29.15L13.7556 35H14.4756L14.4739 29.816H16.9399L16.9416 35H17.6616L17.6596 29.15H13.7536ZM21.1052 35.09C22.4552 35.09 23.3637 33.884 23.3631 32.084C23.3625 30.266 22.4531 29.06 21.1031 29.06C19.7441 29.06 18.8445 30.266 18.8451 32.084C18.8457 33.884 19.7462 35.09 21.1052 35.09ZM21.1049 34.406C20.1959 34.406 19.6016 33.47 19.6011 32.084C19.6006 30.68 20.1943 29.744 21.1033 29.744C22.0033 29.744 22.6066 30.68 22.6071 32.084C22.6076 33.47 22.0049 34.406 21.1049 34.406ZM28.1396 35H29.0756L26.8425 31.877L28.9296 29.15H28.0476L26.1944 31.589H25.3574L25.3566 29.15H24.6366L24.6386 35H25.3586L25.3577 32.255H26.1767L28.1396 35ZM32.3747 33.884L34.3531 29.15H33.5971L32.1043 32.786C31.5639 31.517 30.9424 30.041 30.5731 29.15H29.7901C30.3936 30.554 31.2312 32.489 31.7356 33.677C31.5018 34.244 31.2949 34.46 30.9799 34.46C30.7369 34.46 30.4939 34.298 30.4128 34.064L29.963 34.586C30.1431 34.91 30.5031 35.09 30.9711 35.09C31.6371 35.09 32.006 34.775 32.3747 33.884ZM35.3396 29.15L35.3416 35H36.0616L36.0598 29.816H38.5258L38.5276 35H39.2476L39.2456 29.15H35.3396ZM44.3291 35H45.2651L43.032 31.877L45.119 29.15H44.237L42.3839 31.589H41.5469L41.546 29.15H40.826L40.8281 35H41.5481L41.5471 32.255H42.3661L44.3291 35ZM48.5642 33.884L50.5425 29.15H49.7865L48.2938 32.786C47.7533 31.517 47.1318 30.041 46.7625 29.15H45.9795C46.583 30.554 47.4207 32.489 47.9251 33.677C47.6913 34.244 47.4844 34.46 47.1694 34.46C46.9264 34.46 46.6833 34.298 46.6022 34.064L46.1524 34.586C46.3325 34.91 46.6926 35.09 47.1606 35.09C47.8266 35.09 48.1955 34.775 48.5642 33.884ZM17.5832 42.371C17.583 41.732 17.1778 41.219 16.5297 40.985C17.0696 40.724 17.3754 40.193 17.3752 39.617C17.3749 38.735 16.7087 38.06 15.5747 38.06C14.7287 38.06 14.0628 38.402 13.721 38.906L14.1892 39.392C14.459 38.969 14.8819 38.744 15.4759 38.744C16.1869 38.744 16.6281 39.149 16.6283 39.725C16.6285 40.346 16.2056 40.706 15.4766 40.706H14.7116L14.7118 41.318H15.5038C16.3138 41.318 16.8359 41.633 16.8362 42.335C16.8364 43.091 16.1976 43.397 15.5766 43.397C14.8026 43.397 14.3255 43.109 14.0193 42.596L13.3984 43.046C13.7856 43.667 14.4428 44.09 15.4868 44.09C16.7558 44.09 17.5836 43.496 17.5832 42.371ZM18.8582 44H19.5692L20.0637 42.362H22.1337L22.6292 44H23.3582L21.5292 38.15H20.6832L18.8582 44ZM20.2705 41.696L21.0975 38.951L21.9265 41.696H20.2705ZM25.6047 44L25.6039 41.543H27.2329C28.0609 41.543 28.8437 40.913 28.8433 39.779C28.8429 38.843 28.1947 38.15 27.2587 38.15H24.8827L24.8847 44H25.6047ZM27.0969 38.816C27.6819 38.816 28.0961 39.221 28.0963 39.824C28.0965 40.4 27.6287 40.877 27.0887 40.877H25.6037L25.6029 38.816H27.0969ZM29.6512 44H30.3622L30.8566 42.362H32.9266L33.4222 44H34.1512L32.3222 38.15L31.4762 38.15L29.6512 44ZM31.0634 41.696L31.8905 38.951L32.7194 41.696H31.0634ZM38.5287 38.15L38.5295 40.634H36.0635L36.0627 38.15H35.3427L35.3447 44H36.0647L36.0638 41.3H38.5298L38.5307 44H39.2507L39.2487 38.15H38.5287ZM41.0922 44H44.7372L44.737 43.334H41.812L41.8112 41.255H44.0522L44.052 40.589H41.811L41.8104 38.816H44.6994L44.6992 38.15H41.0902L41.0922 44ZM46.4887 44H50.1337L50.1334 43.334H47.2084L47.2077 41.255H49.4487L49.4485 40.589H47.2075L47.2069 38.816H50.0959L50.0956 38.15H46.4866L46.4887 44Z" fill="black"/>
<path d="M72.9072 16.334H69.5322C69.7479 15.632 70.4408 15.245 71.1247 14.84C71.9435 14.363 72.7533 13.868 72.753 12.788C72.7526 11.753 71.8794 11.06 70.8804 11.06C69.6114 11.06 68.7747 12.014 68.7751 13.058H69.4681C69.4678 12.356 70.0526 11.789 70.8356 11.789C71.3486 11.789 72.0327 12.068 72.033 12.824C72.0333 13.616 71.2234 13.985 70.4046 14.48C69.5677 14.993 68.7309 15.632 68.7314 17H72.9074L72.9072 16.334ZM76.0989 17.09C77.4489 17.09 78.3575 15.884 78.3569 14.084C78.3563 12.266 77.4469 11.06 76.0969 11.06C74.7379 11.06 73.8383 12.266 73.8389 14.084C73.8395 15.884 74.7399 17.09 76.0989 17.09ZM74.5679 14.084C74.5674 12.653 75.1701 11.699 76.0971 11.699C76.4841 11.699 76.8171 11.87 77.0782 12.176L74.7934 15.425C74.6492 15.056 74.5681 14.597 74.5679 14.084ZM77.6279 14.084C77.6284 15.497 77.0167 16.451 76.0987 16.451C75.7207 16.451 75.3967 16.289 75.1446 16.01L77.4114 12.779C77.5556 13.139 77.6277 13.58 77.6279 14.084ZM80.2603 11.06C79.5133 11.06 78.8835 11.681 78.8838 12.428C78.8841 13.184 79.5143 13.805 80.2613 13.805C81.0173 13.805 81.6381 13.184 81.6378 12.428L82.9876 11.87L78.8942 16.325L79.3353 16.766L83.9776 11.726L83.6084 11.195L81.5116 11.861C81.2955 11.393 80.8093 11.06 80.2603 11.06ZM80.2606 11.717C80.6566 11.717 80.9807 12.041 80.9808 12.428C80.9809 12.833 80.6571 13.148 80.2611 13.148C79.8651 13.148 79.5409 12.833 79.5408 12.428C79.5407 12.041 79.8646 11.717 80.2606 11.717ZM82.7274 14.075C81.9804 14.075 81.3506 14.696 81.3509 15.443C81.3511 16.199 81.9813 16.82 82.7283 16.82C83.4843 16.82 84.1051 16.199 84.1049 15.443C84.1046 14.696 83.4834 14.075 82.7274 14.075ZM82.7276 14.732C83.1236 14.732 83.4477 15.056 83.4479 15.443C83.448 15.848 83.1241 16.163 82.7281 16.163C82.3321 16.163 82.008 15.848 82.0079 15.443C82.0077 15.056 82.3316 14.732 82.7276 14.732ZM72.9103 25.334H69.5353C69.7511 24.632 70.4439 24.245 71.1278 23.84C71.9466 23.363 72.7565 22.868 72.7561 21.788C72.7557 20.753 71.8825 20.06 70.8835 20.06C69.6145 20.06 68.7778 21.014 68.7782 22.058H69.4712C69.4709 21.356 70.0557 20.789 70.8387 20.789C71.3517 20.789 72.0358 21.068 72.0361 21.824C72.0364 22.616 71.2265 22.985 70.4077 23.48C69.5708 23.993 68.7341 24.632 68.7345 26H72.9105L72.9103 25.334ZM76.1021 26.09C77.4521 26.09 78.3606 24.884 78.36 23.084C78.3594 21.266 77.45 20.06 76.1 20.06C74.741 20.06 73.8414 21.266 73.842 23.084C73.8426 24.884 74.7431 26.09 76.1021 26.09ZM74.571 23.084C74.5705 21.653 75.1732 20.699 76.1002 20.699C76.4872 20.699 76.8202 20.87 77.0814 21.176L74.7965 24.425C74.6523 24.056 74.5712 23.597 74.571 23.084ZM77.631 23.084C77.6315 24.497 77.0198 25.451 76.1018 25.451C75.7238 25.451 75.3998 25.289 75.1477 25.01L77.4146 21.779C77.5587 22.139 77.6308 22.58 77.631 23.084ZM80.2634 20.06C79.5164 20.06 78.8867 20.681 78.8869 21.428C78.8872 22.184 79.5174 22.805 80.2644 22.805C81.0204 22.805 81.6412 22.184 81.6409 21.428L82.9907 20.87L78.8973 25.325L79.3384 25.766L83.9807 20.726L83.6115 20.195L81.5147 20.861C81.2986 20.393 80.8124 20.06 80.2634 20.06ZM80.2637 20.717C80.6597 20.717 80.9838 21.041 80.9839 21.428C80.9841 21.833 80.6602 22.148 80.2642 22.148C79.8682 22.148 79.5441 21.833 79.5439 21.428C79.5438 21.041 79.8677 20.717 80.2637 20.717ZM82.7305 23.075C81.9835 23.075 81.3537 23.696 81.354 24.443C81.3542 25.199 81.9844 25.82 82.7314 25.82C83.4874 25.82 84.1082 25.199 84.108 24.443C84.1077 23.696 83.4865 23.075 82.7305 23.075ZM82.7307 23.732C83.1267 23.732 83.4508 24.056 83.451 24.443C83.4511 24.848 83.1272 25.163 82.7312 25.163C82.3352 25.163 82.0111 24.848 82.011 24.443C82.0108 24.056 82.3347 23.732 82.7307 23.732ZM72.9134 34.334H69.5384C69.7542 33.632 70.447 33.245 71.1309 32.84C71.9497 32.363 72.7596 31.868 72.7592 30.788C72.7588 29.753 71.8856 29.06 70.8866 29.06C69.6176 29.06 68.7809 30.014 68.7813 31.058H69.4743C69.474 30.356 70.0588 29.789 70.8418 29.789C71.3548 29.789 72.0389 30.068 72.0392 30.824C72.0395 31.616 71.2296 31.985 70.4108 32.48C69.574 32.993 68.7372 33.632 68.7376 35H72.9136L72.9134 34.334ZM76.1052 35.09C77.4552 35.09 78.3637 33.884 78.3631 32.084C78.3625 30.266 77.4531 29.06 76.1031 29.06C74.7441 29.06 73.8445 30.266 73.8451 32.084C73.8457 33.884 74.7462 35.09 76.1052 35.09ZM74.5741 32.084C74.5736 30.653 75.1763 29.699 76.1033 29.699C76.4903 29.699 76.8234 29.87 77.0845 30.176L74.7996 33.425C74.6555 33.056 74.5743 32.597 74.5741 32.084ZM77.6341 32.084C77.6346 33.497 77.0229 34.451 76.1049 34.451C75.7269 34.451 75.4029 34.289 75.1508 34.01L77.4177 30.779C77.5618 31.139 77.634 31.58 77.6341 32.084ZM80.2666 29.06C79.5196 29.06 78.8898 29.681 78.89 30.428C78.8903 31.184 79.5205 31.805 80.2675 31.805C81.0235 31.805 81.6443 31.184 81.644 30.428L82.9938 29.87L78.9004 34.325L79.3415 34.766L83.9838 29.726L83.6146 29.195L81.5178 29.861C81.3017 29.393 80.8156 29.06 80.2666 29.06ZM80.2668 29.717C80.6628 29.717 80.9869 30.041 80.987 30.428C80.9872 30.833 80.6633 31.148 80.2673 31.148C79.8713 31.148 79.5472 30.833 79.547 30.428C79.5469 30.041 79.8708 29.717 80.2668 29.717ZM82.7336 32.075C81.9866 32.075 81.3568 32.696 81.3571 33.443C81.3573 34.199 81.9876 34.82 82.7346 34.82C83.4906 34.82 84.1113 34.199 84.1111 33.443C84.1108 32.696 83.4896 32.075 82.7336 32.075ZM82.7338 32.732C83.1298 32.732 83.4539 33.056 83.4541 33.443C83.4542 33.848 83.1303 34.163 82.7343 34.163C82.3383 34.163 82.0142 33.848 82.0141 33.443C82.0139 33.056 82.3378 32.732 82.7338 32.732ZM72.9165 43.334H69.5415C69.7573 42.632 70.4502 42.245 71.134 41.84C71.9529 41.363 72.7627 40.868 72.7623 39.788C72.7619 38.753 71.8887 38.06 70.8897 38.06C69.6207 38.06 68.784 39.014 68.7844 40.058H69.4774C69.4772 39.356 70.062 38.789 70.845 38.789C71.358 38.789 72.0421 39.068 72.0423 39.824C72.0426 40.616 71.2327 40.985 70.4139 41.48C69.5771 41.993 68.7403 42.632 68.7408 44H72.9168L72.9165 43.334ZM76.1083 44.09C77.4583 44.09 78.3669 42.884 78.3662 41.084C78.3656 39.266 77.4562 38.06 76.1062 38.06C74.7472 38.06 73.8476 39.266 73.8482 41.084C73.8489 42.884 74.7493 44.09 76.1083 44.09ZM74.5772 41.084C74.5767 39.653 75.1794 38.699 76.1064 38.699C76.4934 38.699 76.8265 38.87 77.0876 39.176L74.8027 42.425C74.6586 42.056 74.5774 41.597 74.5772 41.084ZM77.6372 41.084C77.6377 42.497 77.0261 43.451 76.1081 43.451C75.7301 43.451 75.406 43.289 75.1539 43.01L77.4208 39.779C77.5649 40.139 77.6371 40.58 77.6372 41.084ZM80.2697 38.06C79.5227 38.06 78.8929 38.681 78.8932 39.428C78.8934 40.184 79.5236 40.805 80.2706 40.805C81.0266 40.805 81.6474 40.184 81.6471 39.428L82.997 38.87L78.9035 43.325L79.3447 43.766L83.9869 38.726L83.6177 38.195L81.521 38.861C81.3048 38.393 80.8187 38.06 80.2697 38.06ZM80.2699 38.717C80.6659 38.717 80.99 39.041 80.9902 39.428C80.9903 39.833 80.6664 40.148 80.2704 40.148C79.8744 40.148 79.5503 39.833 79.5502 39.428C79.55 39.041 79.8739 38.717 80.2699 38.717ZM82.7367 41.075C81.9897 41.075 81.3599 41.696 81.3602 42.443C81.3605 43.199 81.9907 43.82 82.7377 43.82C83.4937 43.82 84.1145 43.199 84.1142 42.443C84.1139 41.696 83.4927 41.075 82.7367 41.075ZM82.7369 41.732C83.1329 41.732 83.4571 42.056 83.4572 42.443C83.4573 42.848 83.1334 43.163 82.7374 43.163C82.3414 43.163 82.0173 42.848 82.0172 42.443C82.0171 42.056 82.3409 41.732 82.7369 41.732Z" fill="black"/>
<path d="M53.86 14.173V13.507L49.54 11.59V12.4L52.834 13.849L49.54 15.271V16.09L53.86 14.173ZM59.2565 14.173V13.507L54.9365 11.59V12.4L58.2305 13.849L54.9365 15.271V16.09L59.2565 14.173ZM64.653 14.173V13.507L60.333 11.59V12.4L63.627 13.849L60.333 15.271V16.09L64.653 14.173Z" fill="black"/>
<rect x="30" y="49" width="1" height="5" fill="black" fill-opacity="0.3"/>
<path fill-rule="evenodd" clip-rule="evenodd" d="M31 0H30V5H31V0ZM67 0H68V5H67V0ZM67 49H68V54H67V49Z" fill="black" fill-opacity="0.3"/>
</svg>
