<svg width="100" height="60" viewBox="0 0 100 60" fill="none" xmlns="http://www.w3.org/2000/svg">
<mask id="path-1-inside-1" fill="white">
<path fill-rule="evenodd" clip-rule="evenodd" d="M60 0C60 5.52285 55.5229 10 50 10C44.4772 10 40 5.52285 40 0H0V60H40C40 54.4772 44.4772 50 50 50C55.5229 50 60 54.4772 60 60H100V0H60Z"/>
</mask>
<path fill-rule="evenodd" clip-rule="evenodd" d="M60 0C60 5.52285 55.5229 10 50 10C44.4772 10 40 5.52285 40 0H0V60H40C40 54.4772 44.4772 50 50 50C55.5229 50 60 54.4772 60 60H100V0H60Z" fill="#F18C6A"/>
<path d="M60 0V-1H59V0H60ZM40 0H41V-1H40V0ZM0 0V-1H-1V0H0ZM0 60H-1V61H0V60ZM40 60V61H41V60H40ZM60 60H59V61H60V60ZM100 60V61H101V60H100ZM100 0H101V-1H100V0ZM50 11C56.0751 11 61 6.07513 61 0H59C59 4.97056 54.9706 9 50 9V11ZM39 0C39 6.07513 43.9249 11 50 11V9C45.0294 9 41 4.97056 41 0H39ZM0 1H40V-1H0V1ZM1 60V0H-1V60H1ZM40 59H0V61H40V59ZM41 60C41 55.0294 45.0294 51 50 51V49C43.9249 49 39 53.9249 39 60H41ZM50 51C54.9706 51 59 55.0294 59 60H61C61 53.9249 56.0751 49 50 49V51ZM100 59H60V61H100V59ZM99 0V60H101V0H99ZM60 1H100V-1H60V1Z" fill="black" fill-opacity="0.05" mask="url(#path-1-inside-1)"/>
<path d="M41.517 37.68L42.165 38.292L42.525 37.968C42.873 37.668 43.161 37.512 43.533 37.512C44.409 37.512 44.721 38.016 44.721 38.712C44.721 40.488 42.801 41.184 41.277 41.184C41.001 41.184 40.809 41.172 40.665 41.136L40.257 42C40.545 42.096 40.953 42.12 41.337 42.12C43.533 42.12 45.693 40.896 45.693 38.652C45.693 37.452 44.973 36.828 44.097 36.828C43.965 36.828 43.833 36.84 43.713 36.876L45.669 35.088V34.2H40.605V35.088H44.481L41.517 37.68ZM50.1523 42.12C51.9523 42.12 53.1643 40.512 53.1643 38.112C53.1643 35.688 51.9523 34.08 50.1523 34.08C48.3403 34.08 47.1403 35.688 47.1403 38.112C47.1403 40.512 48.3403 42.12 50.1523 42.12ZM48.1123 38.112C48.1123 36.204 48.9163 34.932 50.1523 34.932C50.6683 34.932 51.1123 35.16 51.4603 35.568L48.4123 39.9C48.2203 39.408 48.1123 38.796 48.1123 38.112ZM52.1923 38.112C52.1923 39.996 51.3763 41.268 50.1523 41.268C49.6483 41.268 49.2163 41.052 48.8803 40.68L51.9043 36.372C52.0963 36.852 52.1923 37.44 52.1923 38.112ZM55.4037 34.08C54.4077 34.08 53.5677 34.908 53.5677 35.904C53.5677 36.912 54.4077 37.74 55.4037 37.74C56.4117 37.74 57.2397 36.912 57.2397 35.904L59.0397 35.16L53.5797 41.1L54.1677 41.688L60.3597 34.968L59.8677 34.26L57.0717 35.148C56.7837 34.524 56.1357 34.08 55.4037 34.08ZM55.4037 34.956C55.9317 34.956 56.3637 35.388 56.3637 35.904C56.3637 36.444 55.9317 36.864 55.4037 36.864C54.8757 36.864 54.4437 36.444 54.4437 35.904C54.4437 35.388 54.8757 34.956 55.4037 34.956ZM58.6917 38.1C57.6957 38.1 56.8557 38.928 56.8557 39.924C56.8557 40.932 57.6957 41.76 58.6917 41.76C59.6997 41.76 60.5277 40.932 60.5277 39.924C60.5277 38.928 59.6997 38.1 58.6917 38.1ZM58.6917 38.976C59.2197 38.976 59.6517 39.408 59.6517 39.924C59.6517 40.464 59.2197 40.884 58.6917 40.884C58.1637 40.884 57.7317 40.464 57.7317 39.924C57.7317 39.408 58.1637 38.976 58.6917 38.976Z" fill="black" fill-opacity="0.5"/>
<path d="M35.2861 21.852C34.9381 20.148 33.7861 19.08 32.2621 19.08C30.3781 19.08 29.1301 20.664 29.1301 23.052C29.1301 25.488 30.3781 27.12 32.2621 27.12C33.6781 27.12 34.7821 26.208 35.1901 24.732L34.3501 24.168C34.1221 25.416 33.3061 26.208 32.2621 26.208C30.9661 26.208 30.0901 24.936 30.0901 23.052C30.0901 21.216 30.9661 19.992 32.2621 19.992C33.3541 19.992 34.1941 20.868 34.3981 22.26L35.2861 21.852ZM40.9934 27H42.2414L39.2654 22.836L42.0494 19.2H40.8734L38.4014 22.452H37.2854V19.2H36.3254V27H37.2854V23.34H38.3774L40.9934 27ZM47.3847 27H48.3087V19.2H46.7367L44.0247 25.944V19.2H43.1007V27H44.5167L47.3847 19.86V27ZM50.764 19.2C50.764 24.768 50.68 25.452 49.852 26.112H49.492V28.44H50.416V27H54.892V28.44H55.816V26.112H54.892V19.2H50.764ZM51.04 26.112C51.616 25.308 51.712 23.868 51.724 20.088H53.932V26.112H51.04ZM61.6793 27H62.9273L59.9513 22.836L62.7353 19.2H61.5593L59.0873 22.452H57.9713V19.2H57.0113V27H57.9713V23.34H59.0633L61.6793 27ZM63.3906 27H64.3386L64.9986 24.816H67.7586L68.4186 27H69.3906L66.9546 19.2H65.8266L63.3906 27ZM65.2746 23.928L66.3786 20.268L67.4826 23.928H65.2746Z" fill="black" fill-opacity="0.5"/>
<path opacity="0.3" d="M7.70068 52H6.7998V51.0991H7.70068V52ZM7.70068 48.2383H6.7998V47.3374H7.70068V48.2383ZM10.2056 52H9.30469V51.0991H10.2056V52ZM10.2056 48.2383H9.30469V47.3374H10.2056V48.2383ZM12.7104 52H11.8096V51.0991H12.7104V52ZM12.7104 48.2383H11.8096V47.3374H12.7104V48.2383Z" fill="black"/>
<path opacity="0.3" d="M7.70068 32H6.7998V31.0991H7.70068V32ZM7.70068 28.2383H6.7998V27.3374H7.70068V28.2383ZM10.2056 32H9.30469V31.0991H10.2056V32ZM10.2056 28.2383H9.30469V27.3374H10.2056V28.2383ZM12.7104 32H11.8096V31.0991H12.7104V32ZM12.7104 28.2383H11.8096V27.3374H12.7104V28.2383Z" fill="black"/>
<path opacity="0.3" d="M7.70068 14H6.7998V13.0991H7.70068V14ZM7.70068 10.2383H6.7998V9.3374H7.70068V10.2383ZM10.2056 14H9.30469V13.0991H10.2056V14ZM10.2056 10.2383H9.30469V9.3374H10.2056V10.2383ZM12.7104 14H11.8096V13.0991H12.7104V14ZM12.7104 10.2383H11.8096V9.3374H12.7104V10.2383Z" fill="black"/>
<path opacity="0.3" d="M88.186 52H87.2852V51.0991H88.186V52ZM88.186 48.2383H87.2852V47.3374H88.186V48.2383ZM90.6909 52H89.79V51.0991H90.6909V52ZM90.6909 48.2383H89.79V47.3374H90.6909V48.2383ZM93.1958 52H92.2949V51.0991H93.1958V52ZM93.1958 48.2383H92.2949V47.3374H93.1958V48.2383Z" fill="black"/>
<path opacity="0.3" d="M88.186 32H87.2852V31.0991H88.186V32ZM88.186 28.2383H87.2852V27.3374H88.186V28.2383ZM90.6909 32H89.79V31.0991H90.6909V32ZM90.6909 28.2383H89.79V27.3374H90.6909V28.2383ZM93.1958 32H92.2949V31.0991H93.1958V32ZM93.1958 28.2383H92.2949V27.3374H93.1958V28.2383Z" fill="black"/>
<path opacity="0.3" d="M88.186 14H87.2852V13.0991H88.186V14ZM88.186 10.2383H87.2852V9.3374H88.186V10.2383ZM90.6909 14H89.79V13.0991H90.6909V14ZM90.6909 10.2383H89.79V9.3374H90.6909V10.2383ZM93.1958 14H92.2949V13.0991H93.1958V14ZM93.1958 10.2383H92.2949V9.3374H93.1958V10.2383Z" fill="black"/>
</svg>
