<svg width="100" height="60" viewBox="0 0 100 60" fill="none" xmlns="http://www.w3.org/2000/svg">
<mask id="path-1-inside-1" fill="white">
<path fill-rule="evenodd" clip-rule="evenodd" d="M60 0C60 5.52285 55.5229 10 50 10C44.4772 10 40 5.52285 40 0H0V60H40C40 54.4772 44.4772 50 50 50C55.5229 50 60 54.4772 60 60H100V0H60Z"/>
</mask>
<path fill-rule="evenodd" clip-rule="evenodd" d="M60 0C60 5.52285 55.5229 10 50 10C44.4772 10 40 5.52285 40 0H0V60H40C40 54.4772 44.4772 50 50 50C55.5229 50 60 54.4772 60 60H100V0H60Z" fill="#EB4375"/>
<path d="M60 0V-1H59V0H60ZM40 0H41V-1H40V0ZM0 0V-1H-1V0H0ZM0 60H-1V61H0V60ZM40 60V61H41V60H40ZM60 60H59V61H60V60ZM100 60V61H101V60H100ZM100 0H101V-1H100V0ZM50 11C56.0751 11 61 6.07513 61 0H59C59 4.97056 54.9706 9 50 9V11ZM39 0C39 6.07513 43.9249 11 50 11V9C45.0294 9 41 4.97056 41 0H39ZM0 1H40V-1H0V1ZM1 60V0H-1V60H1ZM40 59H0V61H40V59ZM41 60C41 55.0294 45.0294 51 50 51V49C43.9249 49 39 53.9249 39 60H41ZM50 51C54.9706 51 59 55.0294 59 60H61C61 53.9249 56.0751 49 50 49V51ZM100 59H60V61H100V59ZM99 0V60H101V0H99ZM60 1H100V-1H60V1Z" fill="black" fill-opacity="0.05" mask="url(#path-1-inside-1)"/>
<path opacity="0.3" d="M7.70068 52H6.7998V51.0991H7.70068V52ZM7.70068 48.2383H6.7998V47.3374H7.70068V48.2383ZM10.2056 52H9.30469V51.0991H10.2056V52ZM10.2056 48.2383H9.30469V47.3374H10.2056V48.2383ZM12.7104 52H11.8096V51.0991H12.7104V52ZM12.7104 48.2383H11.8096V47.3374H12.7104V48.2383Z" fill="black"/>
<path opacity="0.3" d="M7.70068 32H6.7998V31.0991H7.70068V32ZM7.70068 28.2383H6.7998V27.3374H7.70068V28.2383ZM10.2056 32H9.30469V31.0991H10.2056V32ZM10.2056 28.2383H9.30469V27.3374H10.2056V28.2383ZM12.7104 32H11.8096V31.0991H12.7104V32ZM12.7104 28.2383H11.8096V27.3374H12.7104V28.2383Z" fill="black"/>
<path opacity="0.3" d="M7.70068 14H6.7998V13.0991H7.70068V14ZM7.70068 10.2383H6.7998V9.3374H7.70068V10.2383ZM10.2056 14H9.30469V13.0991H10.2056V14ZM10.2056 10.2383H9.30469V9.3374H10.2056V10.2383ZM12.7104 14H11.8096V13.0991H12.7104V14ZM12.7104 10.2383H11.8096V9.3374H12.7104V10.2383Z" fill="black"/>
<path opacity="0.3" d="M88.186 52H87.2852V51.0991H88.186V52ZM88.186 48.2383H87.2852V47.3374H88.186V48.2383ZM90.6909 52H89.79V51.0991H90.6909V52ZM90.6909 48.2383H89.79V47.3374H90.6909V48.2383ZM93.1958 52H92.2949V51.0991H93.1958V52ZM93.1958 48.2383H92.2949V47.3374H93.1958V48.2383Z" fill="black"/>
<path opacity="0.3" d="M88.186 32H87.2852V31.0991H88.186V32ZM88.186 28.2383H87.2852V27.3374H88.186V28.2383ZM90.6909 32H89.79V31.0991H90.6909V32ZM90.6909 28.2383H89.79V27.3374H90.6909V28.2383ZM93.1958 32H92.2949V31.0991H93.1958V32ZM93.1958 28.2383H92.2949V27.3374H93.1958V28.2383Z" fill="black"/>
<path opacity="0.3" d="M88.186 14H87.2852V13.0991H88.186V14ZM88.186 10.2383H87.2852V9.3374H88.186V10.2383ZM90.6909 14H89.79V13.0991H90.6909V14ZM90.6909 10.2383H89.79V9.3374H90.6909V10.2383ZM93.1958 14H92.2949V13.0991H93.1958V14ZM93.1958 10.2383H92.2949V9.3374H93.1958V10.2383Z" fill="black"/>
</svg>
