<svg width="102" height="55" viewBox="0 0 102 55" fill="none" xmlns="http://www.w3.org/2000/svg"><path d="M12.143 1a1 1 0 0 1 1-1h75.714a1 1 0 0 1 1 1v3.889L101.728 25.2a1 1 0 0 1 .032.95L89.857 50.11V54a1 1 0 0 1-1 1H13.143a1 1 0 0 1-1-1v-3.889L.254 27.973a1 1 0 0 1 0-.946L12.143 4.889V1z" fill="#FE0"/><path d="M89.357 4.889v.135l.069.117 11.87 20.312a.5.5 0 0 1 .016.475l-11.903 23.96-.052.106V54a.5.5 0 0 1-.5.5H13.143a.5.5 0 0 1-.5-.5v-4.015l-.06-.11L.695 27.736a.5.5 0 0 1 0-.474L12.583 5.125l.06-.11V1a.5.5 0 0 1 .5-.5h75.714a.5.5 0 0 1 .5.5v3.889z" stroke="#000" stroke-opacity=".05"/><mask id="a" maskUnits="userSpaceOnUse" x="0" y="0" width="102" height="55"><path d="M12.143 1a1 1 0 0 1 1-1h75.714a1 1 0 0 1 1 1v3.889L101.728 25.2a1 1 0 0 1 .032.95L89.857 50.11V54a1 1 0 0 1-1 1H13.143a1 1 0 0 1-1-1v-3.889L.254 27.973a1 1 0 0 1 0-.946L12.143 4.889V1z" fill="#000"/><path d="M89.357 4.889v.135l.069.117 11.87 20.312a.5.5 0 0 1 .016.475l-11.903 23.96-.052.106V54a.5.5 0 0 1-.5.5H13.143a.5.5 0 0 1-.5-.5v-4.015l-.06-.11L.695 27.736a.5.5 0 0 1 0-.474L12.583 5.125l.06-.11V1a.5.5 0 0 1 .5-.5h75.714a.5.5 0 0 1 .5.5v3.889z" stroke="#000" stroke-opacity=".05"/></mask><g mask="url(#a)" fill="#000"><path d="M19.031 36.879c.383.102.676.282.88.543.202.258.304.58.304.969 0 .536-.181.958-.543 1.265-.36.305-.858.457-1.496.457-.268 0-.542-.024-.82-.074a5.275 5.275 0 0 1-.82-.215v-.785c.265.138.526.24.784.309.258.067.515.101.77.101.432 0 .764-.097.996-.293.232-.195.348-.476.348-.843 0-.339-.116-.607-.348-.805-.232-.2-.546-.301-.941-.301h-.602v-.648h.602c.361 0 .644-.08.847-.239.203-.159.305-.38.305-.664 0-.3-.095-.528-.285-.687-.188-.162-.456-.242-.805-.242-.232 0-.471.026-.719.078-.247.052-.506.13-.777.234v-.727c.315-.083.595-.145.84-.187.247-.042.466-.063.656-.063.568 0 1.02.144 1.36.43.34.284.511.662.511 1.133 0 .32-.09.587-.27.8-.177.214-.436.365-.777.454zm4.196-2.016l-.832 2.985h1.664l-.832-2.985zm-.477-.695h.957L25.492 40h-.816l-.43-1.52h-2.043L21.781 40h-.816l1.785-5.832zm8.246 0h3.746V40h-.793v-5.168h-2.16V40h-.793v-5.832zm7.82 2.922c0-.857-.088-1.469-.265-1.836-.175-.367-.462-.55-.864-.55-.398 0-.686.183-.863.55-.174.367-.261.98-.261 1.836 0 .854.087 1.465.261 1.832.177.367.465.55.864.55.4 0 .688-.182.863-.546.177-.367.265-.98.265-1.836zm.825 0c0 1.015-.162 1.773-.485 2.273-.32.5-.81.75-1.468.75-.66 0-1.149-.248-1.47-.746-.32-.497-.48-1.256-.48-2.277 0-1.018.16-1.778.48-2.278.324-.5.813-.75 1.47-.75.658 0 1.148.25 1.468.75.323.5.485 1.26.485 2.278zm.996-2.922h.793v2.594l2.465-2.594h.925l-2.27 2.383L44.888 40h-.953l-1.903-2.922-.601.64V40h-.793v-5.832zm7.18 4.172c-.154.411-.32.762-.5 1.05-.115.193-.271.346-.47.458-.179.101-.389.152-.628.152h-.578v-.672h.425c.211 0 .377-.061.496-.184.118-.12.22-.28.31-.48.036-.083.073-.18.112-.289l-1.656-4.207h.848l1.215 3.242 1.203-3.242h.832l-1.61 4.172zm2.46-4.172h3.746V40h-.793v-5.168h-2.16V40h-.793v-5.832zm4.82 0h.794v2.594l2.465-2.594h.925l-2.27 2.383L59.349 40h-.953l-1.903-2.922-.601.64V40h-.793v-5.832zm7.18 4.172c-.153.411-.32.762-.5 1.05-.114.193-.27.346-.468.458-.18.101-.39.152-.63.152h-.577v-.672h.425c.211 0 .377-.061.496-.184.118-.12.22-.28.309-.48.036-.083.074-.18.113-.289l-1.656-4.207h.848l1.215 3.242 1.203-3.242h.832l-1.61 4.172zm8.188-1.125v2.137h.933c.459 0 .786-.08.98-.239.196-.161.294-.425.294-.793 0-.38-.103-.659-.309-.836-.205-.18-.527-.27-.965-.27h-.933zm2.73-2.399h-2.73v1.758h.918c.987.04 1.612.308 1.875.805.138.26.207.6.207 1.02 0 .528-.173.926-.52 1.195-.346.27-.862.406-1.547.406h-1.726v-5.832h3.523v.648zM74.387 40v-5.832h.761v4.8l1.97-4.8h1V40h-.762v-4.8l-1.97 4.8h-1zm6.164-5.168v.977c0 .846-.016 1.601-.047 2.265-.029.664-.176 1.151-.442 1.461-.263.31-.724.465-1.382.465v-.64c.36 0 .616-.093.77-.278.153-.188.243-.552.269-1.094a47.29 47.29 0 0 0 .039-2.156v-1.664h3.18V40h-.794v-5.168h-1.593zm3.703-.664h3.46v.664h-2.671v1.57h2.555v.664h-2.555v2.27h2.746V40h-3.535v-5.832zm4.234 0h4.45v.664h-1.825V40h-.793v-5.168h-1.832v-.664zm7.043.695l-.832 2.985h1.664l-.832-2.985zm-.476-.695h.957L97.797 40h-.816l-.43-1.52h-2.043L94.086 40h-.817l1.786-5.832zM19.03 45.878c.383.102.676.283.88.544.202.258.304.58.304.969 0 .536-.181.958-.543 1.265-.36.305-.858.457-1.496.457-.268 0-.542-.024-.82-.074a5.275 5.275 0 0 1-.82-.215v-.785c.265.138.526.24.784.309.258.067.515.101.77.101.432 0 .764-.097.996-.293.232-.195.348-.476.348-.843 0-.339-.116-.607-.348-.805-.232-.2-.546-.301-.941-.301h-.602v-.648h.602c.361 0 .644-.08.847-.239.203-.159.305-.38.305-.664 0-.3-.095-.528-.285-.687-.188-.162-.456-.242-.805-.242-.232 0-.471.026-.719.078-.247.052-.506.13-.777.234v-.727c.315-.083.595-.145.84-.187.247-.042.466-.063.656-.063.568 0 1.02.144 1.36.43.34.284.511.662.511 1.133 0 .32-.09.587-.27.8-.177.214-.436.365-.777.454zm4.196-2.015l-.832 2.985h1.664l-.832-2.985zm-.477-.695h.957L25.492 49h-.816l-.43-1.52h-2.043L21.781 49h-.816l1.785-5.832zm4.45.648v2.192h.913c.365 0 .649-.097.852-.29.206-.192.308-.462.308-.808 0-.346-.101-.614-.304-.804-.203-.193-.489-.29-.856-.29H27.2zm-.79-.648h1.703c.651 0 1.145.148 1.48.445.337.295.505.727.505 1.297 0 .576-.168 1.01-.504 1.305-.334.294-.827.441-1.48.441h-.915V49h-.789v-5.832zm6.457.695l-.832 2.985H33.7l-.832-2.985zm-.476-.695h.957L35.133 49h-.817l-.43-1.52h-2.042L31.422 49h-.817l1.786-5.832zm3.425 0h.793v2.234h2.16v-2.234h.794V49h-.794v-2.934h-2.16V49h-.793v-5.832zm5.055 0h3.461v.664H41.66v1.57h2.555v.664H41.66v2.27h2.746V49h-3.535v-5.832zm4.82 0h3.461v.664H46.48v1.57h2.555v.664h-2.554v2.27h2.746V49H45.69v-5.832zM16.632 18.208v-1.564h13.804v1.564H16.632zm17.372 8.364l9.214-9.112c1.292-1.292 2.222-2.47 2.788-3.536a7.27 7.27 0 0 0 .85-3.468c0-1.519-.498-2.72-1.496-3.604-.974-.907-2.3-1.36-3.978-1.36-1.518 0-2.788.487-3.808 1.462-.997.952-1.496 2.233-1.496 3.842 0 .544.091 1.054.272 1.53l-1.836.306a5.803 5.803 0 0 1-.408-2.108c0-1.836.67-3.423 2.006-4.76 1.36-1.36 3.14-2.04 5.338-2.04 2.29 0 4.092.623 5.406 1.87 1.315 1.224 1.972 2.8 1.972 4.726a8.926 8.926 0 0 1-.952 4.046c-.634 1.27-1.768 2.72-3.4 4.352l-7.242 7.242h11.764V28H34.004v-1.428zM69.308 7.158c1.904 2.267 2.856 5.247 2.856 8.942 0 3.695-.952 6.687-2.856 8.976-1.881 2.267-4.318 3.4-7.31 3.4s-5.44-1.145-7.344-3.434c-1.881-2.29-2.822-5.27-2.822-8.942 0-3.672.94-6.653 2.822-8.942 1.904-2.29 4.352-3.434 7.344-3.434s5.429 1.145 7.31 3.434zM56.082 23.852c1.541 1.904 3.513 2.856 5.916 2.856 2.403 0 4.363-.952 5.882-2.856 1.541-1.927 2.312-4.51 2.312-7.752 0-3.241-.77-5.814-2.312-7.718-1.519-1.927-3.48-2.89-5.882-2.89-2.403 0-4.375.963-5.916 2.89-1.519 1.904-2.278 4.477-2.278 7.718 0 3.241.76 5.825 2.278 7.752zm36.28 2.924c-1.065-1.156-1.598-2.573-1.598-4.25s.533-3.083 1.598-4.216c1.088-1.156 2.47-1.734 4.148-1.734 1.677 0 3.049.578 4.114 1.734 1.088 1.133 1.632 2.539 1.632 4.216s-.544 3.094-1.632 4.25c-1.065 1.133-2.437 1.7-4.114 1.7s-3.06-.567-4.148-1.7zm1.292-7.31c-.703.77-1.054 1.79-1.054 3.06s.351 2.3 1.054 3.094c.725.77 1.677 1.156 2.856 1.156 1.179 0 2.12-.385 2.822-1.156.725-.793 1.088-1.825 1.088-3.094 0-1.27-.363-2.29-1.088-3.06-.703-.793-1.643-1.19-2.822-1.19s-2.13.397-2.856 1.19zm-16.286-5.542c-1.065-1.156-1.598-2.573-1.598-4.25s.533-3.083 1.598-4.216c1.088-1.156 2.47-1.734 4.148-1.734 1.677 0 3.049.578 4.114 1.734 1.088 1.133 1.632 2.539 1.632 4.216s-.544 3.094-1.632 4.25c-1.065 1.133-2.437 1.7-4.114 1.7s-3.06-.567-4.148-1.7zm1.292-7.31c-.703.77-1.054 1.79-1.054 3.06s.351 2.3 1.054 3.094c.725.77 1.677 1.156 2.856 1.156 1.179 0 2.12-.385 2.822-1.156.725-.793 1.088-1.825 1.088-3.094 0-1.27-.363-2.29-1.088-3.06-.703-.793-1.643-1.19-2.822-1.19s-2.13.397-2.856 1.19zm3.672 21.284l-1.394-.952L95.694 4.302l1.394.952-14.756 22.644z"/></g></svg>