<svg width="100" height="51" viewBox="0 0 100 51" fill="none" xmlns="http://www.w3.org/2000/svg"><path d="M9.005 3c.13-1.65 1.456-3 3.113-3H87.17c1.657 0 2.983 1.35 3.113 3 1.047 13.314 9.005 14.316 9.005 22.835 0 8.475-7.878 9.51-8.988 21.819-.15 1.65-1.473 3.003-3.13 3.003H12.12c-1.658 0-2.981-1.353-3.13-3.003C7.878 35.346 0 34.31 0 25.835c0-8.519 7.959-9.521 9.005-22.834z" fill="#F9FBF8"/><path d="M9.504 3.04C9.615 1.622 10.748.5 12.118.5H87.17c1.37 0 2.503 1.122 2.615 2.54.533 6.78 2.837 10.446 4.986 13.466l.515.719c1.919 2.667 3.502 4.869 3.502 8.61 0 3.81-1.644 6.027-3.609 8.674l-.37.501c-2.133 2.89-4.44 6.314-5.007 12.599-.129 1.423-1.264 2.548-2.632 2.548H12.12c-1.369 0-2.504-1.125-2.632-2.548C8.919 41.324 6.613 37.9 4.48 35.01a250.03 250.03 0 0 0-.37-.5C2.144 31.861.5 29.645.5 25.834c0-3.741 1.584-5.943 3.502-8.61.17-.236.342-.475.515-.72 2.15-3.02 4.454-6.685 4.987-13.465z" stroke="#000" stroke-opacity=".05"/><path fill="#EDEEEC" d="M24.315 1.014h1.013v3.039h-1.013zM24.315 46.605h1.013v3.039h-1.013zM73.959 1.014h1.013v3.039h-1.013zM73.959 46.605h1.013v3.039h-1.013z"/><g opacity=".05" fill="#000"><path d="M10.444 26.604l1.236.888c-.528.808-1.072 1.388-1.632 1.74-.56.344-1.28.516-2.16.516-1.248 0-2.276-.404-3.084-1.212-.808-.808-1.212-1.86-1.212-3.156 0-1.288.412-2.336 1.236-3.144.832-.816 1.872-1.224 3.12-1.224.856 0 1.612.204 2.268.612.656.4 1.128.928 1.416 1.584l-1.284.924c-.52-1.104-1.336-1.656-2.448-1.656-.76 0-1.4.268-1.92.804-.52.528-.78 1.228-.78 2.1 0 .848.26 1.544.78 2.088s1.16.816 1.92.816c1.096 0 1.944-.56 2.544-1.68zm8.921-5.424v8.4h-1.536v-6.036l-.36.66-3.504 5.376h-1.608v-8.4h1.536v6l.36-.66 3.504-5.34h1.608zm.59 8.316l.288-1.452c.16.088.332.132.516.132.32 0 .5-.168.54-.504l.732-6.492h5.328v8.4h-1.584v-6.984h-2.34l-.612 5.484c-.056.496-.24.884-.552 1.164-.312.28-.696.42-1.152.42-.472 0-.86-.056-1.164-.168zm7.637.084l3.396-8.4H32.5l3.396 8.4h-1.692l-.84-2.196h-3.24l-.84 2.196h-1.692zm3.84-5.628l-.768 2.016h2.16l-.768-2.016a14.92 14.92 0 0 1-.312-.912l-.312.912zM59.057 29.224v-8.4h3.456c.856 0 1.516.18 1.98.54.472.36.708.864.708 1.512 0 .408-.112.768-.336 1.08-.216.304-.492.54-.828.708 1.008.4 1.512 1.08 1.512 2.04 0 .768-.288 1.38-.864 1.836-.568.456-1.272.684-2.112.684h-3.516zm1.584-3.744v2.328h1.836c.992 0 1.488-.388 1.488-1.164 0-.776-.496-1.164-1.488-1.164h-1.836zm0-3.264v1.872h1.752c.44 0 .76-.076.96-.228.208-.152.312-.388.312-.708 0-.32-.104-.556-.312-.708-.2-.152-.52-.228-.96-.228h-1.752zm5.674 7.008v-8.4h5.796v1.416h-4.212v1.932h3.876v1.416h-3.876v2.22h4.248v1.416h-5.832zm6.199-6.936v-1.464h6.72v1.464h-2.568v6.936h-1.584v-6.936h-2.568zm7.285 6.936v-8.4h3.816c.968 0 1.732.24 2.292.72.568.472.852 1.144.852 2.016 0 .872-.284 1.548-.852 2.028-.56.472-1.324.708-2.292.708h-2.232v2.928H79.8zm1.584-6.984v2.64h2.184c.536 0 .936-.116 1.2-.348.272-.24.408-.564.408-.972 0-.408-.136-.728-.408-.96-.264-.24-.664-.36-1.2-.36h-2.184zm4.32 6.984l3.395-8.4h1.512l3.396 8.4h-1.692l-.84-2.196h-3.24l-.84 2.196h-1.692zm3.84-5.628l-.769 2.016h2.16l-.768-2.016a14.92 14.92 0 0 1-.312-.912l-.312.912zM44.331 24.928v1.176l-5.244 2.58v-1.5l3.588-1.668-3.587-1.668V22.36l5.243 2.568zm5.817 0v1.176l-5.244 2.58v-1.5l3.588-1.668-3.588-1.668V22.36l5.244 2.568zm5.816 0v1.176l-5.244 2.58v-1.5l3.588-1.668-3.588-1.668V22.36l5.244 2.568z"/></g></svg>