<svg width="90" height="56" viewBox="0 0 90 56" fill="none" xmlns="http://www.w3.org/2000/svg"><mask id="a" fill="#fff"><path fill-rule="evenodd" clip-rule="evenodd" d="M54 0a9 9 0 1 1-18 0H0v56h36a9 9 0 1 1 18 0h36V0H54z"/></mask><path fill-rule="evenodd" clip-rule="evenodd" d="M54 0a9 9 0 1 1-18 0H0v56h36a9 9 0 1 1 18 0h36V0H54z" fill="#C4EFF8"/><path d="M54 0v-1h-1v1h1zM36 0h1v-1h-1v1zM0 0v-1h-1v1h1zm0 56h-1v1h1v-1zm36 0v1h1v-1h-1zm18 0h-1v1h1v-1zm36 0v1h1v-1h-1zm0-56h1v-1h-1v1zM45 10c5.523 0 10-4.477 10-10h-2a8 8 0 0 1-8 8v2zM35 0c0 5.523 4.477 10 10 10V8a8 8 0 0 1-8-8h-2zM0 1h36v-2H0v2zm1 55V0h-2v56h2zm35-1H0v2h36v-2zm1 1a8 8 0 0 1 8-8v-2c-5.523 0-10 4.477-10 10h2zm8-8a8 8 0 0 1 8 8h2c0-5.523-4.477-10-10-10v2zm45 7H54v2h36v-2zM89 0v56h2V0h-2zM54 1h36v-2H54v2z" fill="#000" fill-opacity=".05" mask="url(#a)"/><path d="M72.86 9.173v-.666L68.54 6.59v.81l3.294 1.449-3.294 1.422v.819l4.32-1.917zm5.397 0v-.666l-4.32-1.917v.81l3.294 1.449-3.294 1.422v.819l4.32-1.917zm5.396 0v-.666l-4.32-1.917v.81l3.294 1.449-3.294 1.422v.819l4.32-1.917zM5.585 10.11h4.23v-.72h-4.23v.72zm6.054-2.34l1.458-.855v4.419H10.9V12h4.743v-.666h-1.827V6.15h-.72l-1.934 1.134.476.486zm6.854 4.32c1.35 0 2.259-1.206 2.259-3.006 0-1.818-.909-3.024-2.259-3.024-1.359 0-2.259 1.206-2.259 3.024 0 1.8.9 3.006 2.259 3.006zm-1.53-3.006c0-1.431.603-2.385 1.53-2.385.387 0 .72.171.981.477l-2.286 3.249c-.144-.369-.225-.828-.225-1.341zm3.06 0c0 1.413-.612 2.367-1.53 2.367a1.26 1.26 0 0 1-.954-.441l2.268-3.231c.144.36.216.801.216 1.305zm2.634-3.024c-.747 0-1.378.621-1.378 1.368 0 .756.63 1.377 1.378 1.377.756 0 1.377-.621 1.377-1.377l1.35-.558-4.096 4.455.442.441 4.643-5.04-.369-.531-2.097.666a1.39 1.39 0 0 0-1.25-.801zm0 .657a.72.72 0 0 1 .72.711c0 .405-.325.72-.72.72a.716.716 0 0 1-.72-.72.72.72 0 0 1 .72-.711zm2.465 2.358c-.747 0-1.377.621-1.377 1.368 0 .756.63 1.377 1.377 1.377.756 0 1.378-.621 1.378-1.377a1.38 1.38 0 0 0-1.378-1.368zm0 .657a.72.72 0 0 1 .72.711c0 .405-.323.72-.72.72a.716.716 0 0 1-.72-.72.72.72 0 0 1 .72-.711zM11.86 47.173v-.666L7.54 44.59v.81l3.294 1.449-3.294 1.422v.819l4.32-1.917zm5.396 0v-.666l-4.32-1.917v.81l3.294 1.449-3.293 1.422v.819l4.32-1.917zm5.397 0v-.666l-4.32-1.917v.81l3.294 1.449-3.294 1.422v.819l4.32-1.917zM63.585 47.11h4.23v-.72h-4.23v.72zm6.053-2.34l1.459-.855v4.419H68.9V49h4.743v-.666h-1.826V43.15h-.72l-1.935 1.134.476.486zm6.855 4.32c1.35 0 2.259-1.206 2.259-3.006 0-1.818-.909-3.024-2.259-3.024-1.359 0-2.259 1.206-2.259 3.024 0 1.8.9 3.006 2.259 3.006zm-1.53-3.006c0-1.431.603-2.385 1.53-2.385.387 0 .72.171.981.477l-2.286 3.249c-.144-.369-.225-.828-.225-1.341zm3.06 0c0 1.413-.612 2.367-1.53 2.367a1.26 1.26 0 0 1-.954-.441l2.268-3.231c.144.36.216.801.216 1.305zm2.633-3.024c-.747 0-1.377.621-1.377 1.368 0 .756.63 1.377 1.377 1.377.756 0 1.377-.621 1.377-1.377l1.35-.558-4.094 4.455.44.441 4.645-5.04-.37-.531-2.097.666a1.39 1.39 0 0 0-1.25-.801zm0 .657a.72.72 0 0 1 .72.711c0 .405-.324.72-.72.72a.716.716 0 0 1-.72-.72.72.72 0 0 1 .72-.711zm2.466 2.358c-.746 0-1.376.621-1.376 1.368 0 .756.63 1.377 1.377 1.377.755 0 1.376-.621 1.376-1.377a1.38 1.38 0 0 0-1.376-1.368zm0 .657a.72.72 0 0 1 .72.711c0 .405-.323.72-.72.72a.716.716 0 0 1-.72-.72.72.72 0 0 1 .72-.711zM25.427 19.15V25h.72v-5.184h2.466V25h.72v-5.85h-3.906zM31.576 25v-2.457h1.629c.828 0 1.611-.63 1.611-1.764 0-.936-.648-1.629-1.584-1.629h-2.376V25h.72zm1.494-5.184c.585 0 .999.405.999 1.008 0 .576-.468 1.053-1.008 1.053h-1.485v-2.061h1.494zm4.502 5.274c1.35 0 2.26-1.206 2.26-3.006 0-1.818-.91-3.024-2.26-3.024-1.358 0-2.259 1.206-2.259 3.024 0 1.8.9 3.006 2.26 3.006zm0-.684c-.909 0-1.503-.936-1.503-2.322 0-1.404.594-2.34 1.503-2.34.9 0 1.503.936 1.503 2.34 0 1.386-.603 2.322-1.503 2.322zm4.52-1.611h1.126l.918-3.141V25h.693v-5.85h-1.26l-.891 3.15-.9-3.15h-1.27V25h.694v-5.382l.89 3.177zm5.673 2.295c1.35 0 2.26-1.206 2.26-3.006 0-1.818-.91-3.024-2.26-3.024-1.359 0-2.259 1.206-2.259 3.024 0 1.8.9 3.006 2.26 3.006zm0-.684c-.909 0-1.503-.936-1.503-2.322 0-1.404.594-2.34 1.503-2.34.9 0 1.503.936 1.503 2.34 0 1.386-.603 2.322-1.503 2.322zM54.5 25h.936l-2.232-3.123 2.088-2.727h-.882l-1.854 2.439h-.837V19.15h-.72V25h.72v-2.745h.819L54.5 25zm3.458.09c1.35 0 2.26-1.206 2.26-3.006 0-1.818-.91-3.024-2.26-3.024-1.359 0-2.259 1.206-2.259 3.024 0 1.8.9 3.006 2.26 3.006zm0-.684c-.909 0-1.503-.936-1.503-2.322 0-1.404.594-2.34 1.503-2.34.9 0 1.503.936 1.503 2.34 0 1.386-.603 2.322-1.503 2.322zm3.72-5.256c0 4.176-.063 4.689-.684 5.184h-.27v1.746h.693V25h3.357v1.08h.693v-1.746h-.693V19.15h-3.096zm.207 5.184c.432-.603.504-1.683.513-4.518h1.656v4.518h-2.17zM20.84 31.15c0 4.176-.062 4.689-.683 5.184h-.27v1.746h.693V37h3.357v1.08h.693v-1.746h-.693V31.15H20.84zm.208 5.184c.432-.603.504-1.683.513-4.518h1.656v4.518h-2.17zM26 31.15c0 4.266-.036 4.887-.954 5.292l.306.693c1.206-.495 1.36-1.305 1.368-5.319h1.836V37h.72v-5.85H26zm4.413 1.746c0 .864.494 1.314 1.134 1.512L30.125 37h.828l1.305-2.484h1.359V37h.72v-5.85h-2.16c-1.026 0-1.764.594-1.764 1.746zm2.052.999c-.73 0-1.306-.297-1.306-1.044 0-.828.604-1.08 1.18-1.08h1.278v2.124h-1.152zm8.761-2.745c0 4.176-.063 4.689-.684 5.184h-.27v1.746h.694V37h3.356v1.08h.694v-1.746h-.694V31.15h-3.096zm.208 5.184c.431-.603.504-1.683.513-4.518h1.655v4.518h-2.168zM46.8 37v-2.457h1.629c.828 0 1.611-.63 1.611-1.764 0-.936-.648-1.629-1.584-1.629H46.08V37h.72zm1.494-5.184c.585 0 .999.405.999 1.008 0 .576-.468 1.053-1.008 1.053H46.8v-2.061h1.494zm4.98 4.068l1.98-4.734h-.756l-1.494 3.636a468.376 468.376 0 0 1-1.53-3.636h-.783c.602 1.404 1.44 3.339 1.944 4.527-.234.567-.441.783-.756.783a.614.614 0 0 1-.567-.396l-.45.522c.18.324.54.504 1.008.504.666 0 1.035-.315 1.404-1.206zm6.491-.513c0-.639-.405-1.152-1.053-1.386.54-.261.846-.792.846-1.368 0-.882-.666-1.557-1.8-1.557-.846 0-1.512.342-1.854.846l.468.486c.27-.423.693-.648 1.287-.648.711 0 1.152.405 1.152.981 0 .621-.423.981-1.152.981h-.765v.612h.792c.81 0 1.332.315 1.332 1.017 0 .756-.639 1.062-1.26 1.062-.774 0-1.251-.288-1.557-.801l-.621.45c.387.621 1.044 1.044 2.088 1.044 1.269 0 2.097-.594 2.097-1.719zM61.388 37h3.645v-.666h-2.925v-2.079h2.24v-.666h-2.24v-1.773h2.889v-.666h-3.61V37zm7.247-7.65a.559.559 0 0 1-.567.567.559.559 0 0 1-.567-.567h-.603c0 .648.54 1.161 1.17 1.161a1.16 1.16 0 0 0 1.17-1.161h-.603zm.71 7.65h.694v-5.85h-1.18l-2.033 5.058V31.15h-.693V37h1.062l2.15-5.355V37z" fill="#262626"/><path opacity=".1" fill-rule="evenodd" clip-rule="evenodd" d="M83 28v-2h-1v5h1v-2h7v-1h-7zM8 28v-2H7v2H0v1h7v2h1v-3z" fill="#000"/></svg>