<svg width="100" height="60" viewBox="0 0 100 60" fill="none" xmlns="http://www.w3.org/2000/svg"><mask id="a" fill="#fff"><path fill-rule="evenodd" clip-rule="evenodd" d="M60 0c0 5.523-4.477 10-10 10S40 5.523 40 0H0v60h40c0-5.523 4.477-10 10-10s10 4.477 10 10h40V0H60z"/></mask><path fill-rule="evenodd" clip-rule="evenodd" d="M60 0c0 5.523-4.477 10-10 10S40 5.523 40 0H0v60h40c0-5.523 4.477-10 10-10s10 4.477 10 10h40V0H60z" fill="#F18C6A"/><path d="M60 0v-1h-1v1h1zM40 0h1v-1h-1v1zM0 0v-1h-1v1h1zm0 60h-1v1h1v-1zm40 0v1h1v-1h-1zm20 0h-1v1h1v-1zm40 0v1h1v-1h-1zm0-60h1v-1h-1v1zM50 11c6.075 0 11-4.925 11-11h-2a9 9 0 0 1-9 9v2zM39 0c0 6.075 4.925 11 11 11V9a9 9 0 0 1-9-9h-2zM0 1h40v-2H0v2zm1 59V0h-2v60h2zm39-1H0v2h40v-2zm1 1a9 9 0 0 1 9-9v-2c-6.075 0-11 4.925-11 11h2zm9-9a9 9 0 0 1 9 9h2c0-6.075-4.925-11-11-11v2zm50 8H60v2h40v-2zM99 0v60h2V0h-2zM60 1h40v-2H60v2z" fill="#000" fill-opacity=".05" mask="url(#a)"/><path d="M41.517 37.68l.648.612.36-.324c.348-.3.636-.456 1.008-.456.876 0 1.188.504 1.188 1.2 0 1.776-1.92 2.472-3.444 2.472-.276 0-.468-.012-.612-.048l-.408.864c.288.096.696.12 1.08.12 2.196 0 4.356-1.224 4.356-3.468 0-1.2-.72-1.824-1.596-1.824-.132 0-.264.012-.384.048l1.956-1.788V34.2h-5.064v.888h3.876l-2.964 2.592zm8.635 4.44c1.8 0 3.012-1.608 3.012-4.008 0-2.424-1.212-4.032-3.012-4.032-1.812 0-3.012 1.608-3.012 4.032 0 2.4 1.2 4.008 3.012 4.008zm-2.04-4.008c0-1.908.804-3.18 2.04-3.18.516 0 .96.228 1.308.636L48.412 39.9c-.192-.492-.3-1.104-.3-1.788zm4.08 0c0 1.884-.816 3.156-2.04 3.156-.504 0-.936-.216-1.272-.588l3.024-4.308c.192.48.288 1.068.288 1.74zm3.212-4.032c-.996 0-1.836.828-1.836 1.824 0 1.008.84 1.836 1.836 1.836a1.844 1.844 0 0 0 1.836-1.836l1.8-.744-5.46 5.94.588.588 6.192-6.72-.492-.708-2.796.888a1.853 1.853 0 0 0-1.668-1.068zm0 .876a.96.96 0 0 1 .96.948c0 .54-.432.96-.96.96a.955.955 0 0 1-.96-.96.96.96 0 0 1 .96-.948zm3.288 3.144c-.996 0-1.836.828-1.836 1.824 0 1.008.84 1.836 1.836 1.836a1.844 1.844 0 0 0 1.836-1.836c0-.996-.828-1.824-1.836-1.824zm0 .876a.96.96 0 0 1 .96.948c0 .54-.432.96-.96.96a.955.955 0 0 1-.96-.96.96.96 0 0 1 .96-.948zM35.286 21.852c-.348-1.704-1.5-2.772-3.024-2.772-1.884 0-3.132 1.584-3.132 3.972 0 2.436 1.248 4.068 3.132 4.068 1.416 0 2.52-.912 2.928-2.388l-.84-.564c-.228 1.248-1.044 2.04-2.088 2.04-1.296 0-2.172-1.272-2.172-3.156 0-1.836.876-3.06 2.172-3.06 1.092 0 1.932.876 2.136 2.268l.888-.408zM40.993 27h1.248l-2.976-4.164L42.05 19.2h-1.176l-2.472 3.252h-1.116V19.2h-.96V27h.96v-3.66h1.092L40.993 27zm6.392 0h.924v-7.8h-1.572l-2.712 6.744V19.2H43.1V27h1.416l2.868-7.14V27zm3.379-7.8c0 5.568-.084 6.252-.912 6.912h-.36v2.328h.924V27h4.476v1.44h.924v-2.328h-.924V19.2h-4.128zm.276 6.912c.576-.804.672-2.244.684-6.024h2.208v6.024H51.04zM61.68 27h1.247l-2.976-4.164 2.784-3.636H61.56l-2.472 3.252h-1.116V19.2h-.96V27h.96v-3.66h1.092L61.68 27zm1.71 0h.949l.66-2.184h2.76l.66 2.184h.972l-2.436-7.8h-1.128L63.39 27zm1.885-3.072l1.104-3.66 1.104 3.66h-2.208z" fill="#000" fill-opacity=".5"/><path opacity=".3" d="M7.7 52h-.9v-.9h.9v.9zm0-3.762h-.9v-.9h.9v.9zM10.207 52h-.901v-.9h.9v.9zm0-3.762h-.901v-.9h.9v.9zM12.71 52h-.9v-.9h.9v.9zm0-3.762h-.9v-.9h.9v.9zM7.7 32h-.9v-.9h.9v.9zm0-3.762h-.9v-.9h.9v.9zM10.207 32h-.901v-.9h.9v.9zm0-3.762h-.901v-.9h.9v.9zM12.71 32h-.9v-.9h.9v.9zm0-3.762h-.9v-.9h.9v.9zM7.7 14h-.9v-.9h.9v.9zm0-3.762h-.9v-.9h.9v.9zM10.207 14h-.901v-.9h.9v.9zm0-3.762h-.901v-.9h.9v.9zM12.71 14h-.9v-.9h.9v.9zm0-3.762h-.9v-.9h.9v.9zM88.186 52h-.9v-.9h.9v.9zm0-3.762h-.9v-.9h.9v.9zM90.691 52h-.901v-.9h.9v.9zm0-3.762h-.901v-.9h.9v.9zM93.196 52h-.901v-.9h.9v.9zm0-3.762h-.901v-.9h.9v.9zM88.186 32h-.9v-.9h.9v.9zm0-3.762h-.9v-.9h.9v.9zM90.691 32h-.901v-.9h.9v.9zm0-3.762h-.901v-.9h.9v.9zM93.196 32h-.901v-.9h.9v.9zm0-3.762h-.901v-.9h.9v.9zM88.186 14h-.9v-.9h.9v.9zm0-3.762h-.9v-.9h.9v.9zM90.691 14h-.901v-.9h.9v.9zm0-3.762h-.901v-.9h.9v.9zM93.196 14h-.901v-.9h.9v.9zm0-3.762h-.901v-.9h.9v.9z" fill="#000"/></svg>