<svg width="98" height="54" viewBox="0 0 98 54" fill="none" xmlns="http://www.w3.org/2000/svg"><path d="M7.298 0h83.404C90.702 10.8 98 12.42 98 26.46 98 40.5 91.08 44.27 90.702 54H7.298C7.298 43.2 0 41.58 0 27.54 0 13.5 7.298 10.8 7.298 0z" fill="#EB4375"/><path d="M7.793.5h82.414c.103 4.877 1.695 7.916 3.34 11.055l.36.69c1.805 3.473 3.593 7.306 3.593 14.215 0 6.921-1.7 11.3-3.463 15.18-.2.44-.4.873-.6 1.305-1.509 3.259-2.953 6.379-3.21 10.555H7.793c-.103-4.877-1.695-7.916-3.34-11.055l-.36-.69C2.288 38.281.5 34.448.5 27.54c0-6.913 1.79-11.019 3.6-14.768l.361-.746C6.103 8.65 7.691 5.384 7.793.5z" stroke="#000" stroke-opacity=".1"/><path d="M18.23 13.139c-.261-1.278-1.126-2.079-2.269-2.079-1.413 0-2.348 1.188-2.348 2.979.001 1.827.938 3.051 2.35 3.051 1.063 0 1.89-.684 2.196-1.791l-.63-.423c-.171.936-.783 1.53-1.566 1.53-.972 0-1.63-.954-1.63-2.367 0-1.377.657-2.295 1.629-2.295.819 0 1.449.657 1.602 1.701l.666-.306zM22.737 17h.936l-2.233-3.123 2.087-2.727h-.882l-1.853 2.439h-.837l-.001-2.439h-.72l.002 5.85h.72l-.001-2.745h.819L22.737 17zm5.018 0h.693l-.002-5.85h-1.179l-2.032 5.058-.002-5.058h-.693l.002 5.85h1.062l2.15-5.355.001 5.355zm2.758-5.85c.001 4.176-.062 4.689-.682 5.184h-.27v1.746h.693V17h3.357v1.08h.693v-1.746h-.693l-.002-5.184h-3.096zm.209 5.184c.431-.603.503-1.683.511-4.518h1.656l.002 4.518h-2.17zm8.204.666h.936l-2.233-3.123 2.087-2.727h-.882l-1.853 2.439h-.837V11.15h-.72l.001 5.85h.72v-2.745h.818L38.926 17zm1.509 0h.71l.495-1.638h2.07L44.206 17h.729l-1.83-5.85h-.845L40.435 17zm1.412-2.304l.827-2.745.829 2.745h-1.656zm-24.27 9.675c0-.639-.405-1.152-1.054-1.386.54-.261.846-.792.846-1.368 0-.882-.666-1.557-1.8-1.557-.847 0-1.512.342-1.854.846l.468.486c.27-.423.693-.648 1.287-.648.71 0 1.152.405 1.152.981 0 .621-.423.981-1.152.981h-.765v.612h.793c.81 0 1.332.315 1.332 1.017 0 .756-.639 1.062-1.26 1.062-.774 0-1.25-.288-1.557-.801l-.62.45c.386.621 1.044 1.044 2.088 1.044 1.269 0 2.096-.594 2.096-1.719zM18.852 26h.711l.495-1.638h2.07L22.623 26h.729l-1.829-5.85h-.846L18.852 26zm1.412-2.304l.827-2.745.83 2.745h-1.657zm-6.51 5.454l.002 5.85h.72l-.002-5.184h2.466L16.942 35h.72l-.002-5.85h-3.906zm7.351 5.94c1.35 0 2.259-1.206 2.258-3.006 0-1.818-.91-3.024-2.26-3.024-1.359 0-2.259 1.206-2.258 3.024 0 1.8.901 3.006 2.26 3.006zm0-.684c-.91 0-1.503-.936-1.504-2.322 0-1.404.593-2.34 1.502-2.34.9 0 1.504.936 1.504 2.34 0 1.386-.602 2.322-1.502 2.322zM28.14 35h.936l-2.233-3.123 2.087-2.727h-.882l-1.854 2.439h-.837V29.15h-.72l.002 5.85h.72l-.001-2.745h.819L28.14 35zm4.235-1.116l1.978-4.734h-.756l-1.493 3.636a469.516 469.516 0 0 1-1.53-3.636h-.784c.604 1.404 1.441 3.339 1.946 4.527-.234.567-.441.783-.756.783a.614.614 0 0 1-.567-.396l-.45.522c.18.324.54.504 1.008.504.666 0 1.035-.315 1.404-1.206zm2.965-4.734l.002 5.85h.72l-.002-5.184h2.466L38.528 35h.72l-.002-5.85H35.34zM44.33 35h.935l-2.233-3.123 2.087-2.727h-.882l-1.853 2.439h-.837l-.001-2.439h-.72l.002 5.85h.72v-2.745h.818L44.33 35zm4.234-1.116l1.978-4.734h-.756l-1.492 3.636a466.025 466.025 0 0 1-1.531-3.636h-.783c.603 1.404 1.44 3.339 1.945 4.527-.234.567-.44.783-.756.783a.614.614 0 0 1-.567-.396l-.45.522c.18.324.54.504 1.009.504.666 0 1.035-.315 1.403-1.206zm-30.98 8.487c-.001-.639-.406-1.152-1.054-1.386.54-.261.845-.792.845-1.368 0-.882-.666-1.557-1.8-1.557-.846 0-1.512.342-1.854.846l.468.486c.27-.423.693-.648 1.287-.648.71 0 1.152.405 1.152.981 0 .621-.422.981-1.151.981h-.765v.612h.792c.81 0 1.332.315 1.332 1.017 0 .756-.638 1.062-1.26 1.062-.773 0-1.25-.288-1.557-.801l-.62.45c.387.621 1.044 1.044 2.088 1.044 1.269 0 2.097-.594 2.096-1.719zM18.857 44h.711l.495-1.638h2.07L22.629 44h.73l-1.83-5.85h-.846L18.858 44zm1.412-2.304l.828-2.745.829 2.745H20.27zM25.605 44l-.001-2.457h1.629c.828 0 1.61-.63 1.61-1.764 0-.936-.648-1.629-1.584-1.629h-2.376l.002 5.85h.72zm1.492-5.184c.585 0 1 .405 1 1.008 0 .576-.468 1.053-1.008 1.053h-1.485l-.001-2.061h1.494zM29.65 44h.711l.495-1.638h2.07L33.422 44h.73l-1.83-5.85h-.846L29.651 44zm1.412-2.304l.828-2.745.828 2.745h-1.656zm7.466-3.546v2.484h-2.466V38.15h-.72l.002 5.85h.72l-.001-2.7h2.466V44h.72l-.001-5.85h-.72zM41.092 44h3.645v-.666h-2.925v-2.079h2.24v-.666h-2.241v-1.773h2.888v-.666H41.09l.002 5.85zm5.397 0h3.645v-.666h-2.926v-2.079h2.24v-.666h-2.24l-.001-1.773h2.889v-.666h-3.61L46.49 44zM72.907 16.334h-3.375c.216-.702.909-1.089 1.593-1.494.819-.477 1.628-.972 1.628-2.052 0-1.035-.874-1.728-1.873-1.728-1.269 0-2.105.954-2.105 1.998h.693c0-.702.585-1.269 1.368-1.269.513 0 1.197.279 1.197 1.035 0 .792-.81 1.161-1.628 1.656-.837.513-1.674 1.152-1.674 2.52h4.176v-.666zm3.192.756c1.35 0 2.258-1.206 2.258-3.006 0-1.818-.91-3.024-2.26-3.024-1.36 0-2.259 1.206-2.258 3.024 0 1.8.9 3.006 2.26 3.006zm-1.531-3.006c0-1.431.602-2.385 1.53-2.385.386 0 .72.171.98.477l-2.285 3.249c-.144-.369-.225-.828-.225-1.341zm3.06 0c0 1.413-.611 2.367-1.53 2.367a1.26 1.26 0 0 1-.953-.441l2.266-3.231c.145.36.217.801.217 1.305zm2.632-3.024c-.747 0-1.377.621-1.376 1.368 0 .756.63 1.377 1.377 1.377.756 0 1.377-.621 1.377-1.377l1.35-.558-4.094 4.455.441.441 4.643-5.04-.37-.531-2.096.666a1.39 1.39 0 0 0-1.252-.801zm0 .657a.72.72 0 0 1 .72.711c0 .405-.323.72-.719.72a.717.717 0 0 1-.72-.72.72.72 0 0 1 .72-.711zm2.467 2.358c-.747 0-1.376.621-1.376 1.368 0 .756.63 1.377 1.377 1.377.756 0 1.377-.621 1.377-1.377 0-.747-.622-1.368-1.378-1.368zm0 .657a.72.72 0 0 1 .72.711c.001.405-.323.72-.719.72a.717.717 0 0 1-.72-.72.72.72 0 0 1 .72-.711zM72.91 25.334h-3.375c.216-.702.909-1.089 1.593-1.494.819-.477 1.629-.972 1.628-2.052 0-1.035-.874-1.728-1.873-1.728-1.268 0-2.105.954-2.105 1.998h.693c0-.702.585-1.269 1.368-1.269.513 0 1.197.279 1.197 1.035 0 .792-.81 1.161-1.628 1.656-.837.513-1.674 1.152-1.674 2.52h4.177v-.666zm3.192.756c1.35 0 2.259-1.206 2.258-3.006 0-1.818-.91-3.024-2.26-3.024-1.359 0-2.259 1.206-2.258 3.024 0 1.8.901 3.006 2.26 3.006zm-1.531-3.006c0-1.431.602-2.385 1.53-2.385.386 0 .72.171.98.477l-2.285 3.249c-.144-.369-.225-.828-.225-1.341zm3.06 0c0 1.413-.611 2.367-1.53 2.367a1.26 1.26 0 0 1-.953-.441l2.267-3.231c.144.36.216.801.216 1.305zm2.632-3.024c-.747 0-1.376.621-1.376 1.368 0 .756.63 1.377 1.377 1.377.756 0 1.377-.621 1.377-1.377l1.35-.558-4.094 4.455.441.441 4.643-5.04-.37-.531-2.096.666a1.39 1.39 0 0 0-1.252-.801zm0 .657a.72.72 0 0 1 .72.711c.001.405-.323.72-.719.72a.717.717 0 0 1-.72-.72.72.72 0 0 1 .72-.711zm2.468 2.358c-.747 0-1.377.621-1.377 1.368 0 .756.63 1.377 1.377 1.377.756 0 1.377-.621 1.377-1.377 0-.747-.621-1.368-1.377-1.368zm0 .657a.72.72 0 0 1 .72.711c0 .405-.324.72-.72.72a.717.717 0 0 1-.72-.72.72.72 0 0 1 .72-.711zm-9.818 10.602h-3.375c.216-.702.909-1.089 1.593-1.494.819-.477 1.629-.972 1.628-2.052 0-1.035-.873-1.728-1.872-1.728-1.27 0-2.106.954-2.106 1.998h.693c0-.702.585-1.269 1.368-1.269.513 0 1.197.279 1.197 1.035 0 .792-.81 1.161-1.628 1.656-.837.513-1.674 1.152-1.673 2.52h4.176v-.666zm3.192.756c1.35 0 2.259-1.206 2.258-3.006 0-1.818-.91-3.024-2.26-3.024-1.359 0-2.258 1.206-2.258 3.024 0 1.8.901 3.006 2.26 3.006zm-1.53-3.006c-.001-1.431.601-2.385 1.528-2.385.387 0 .72.171.982.477L74.8 33.425c-.144-.369-.226-.828-.226-1.341zm3.06 0c0 1.413-.612 2.367-1.53 2.367a1.26 1.26 0 0 1-.954-.441l2.267-3.231c.144.36.216.801.216 1.305zm2.632-3.024c-.747 0-1.377.621-1.377 1.368 0 .756.63 1.377 1.377 1.377.757 0 1.377-.621 1.377-1.377l1.35-.558-4.094 4.455.441.441 4.643-5.04-.37-.531-2.096.666a1.39 1.39 0 0 0-1.251-.801zm0 .657a.72.72 0 0 1 .72.711c0 .405-.324.72-.72.72a.717.717 0 0 1-.72-.72.72.72 0 0 1 .72-.711zm2.467 2.358c-.747 0-1.377.621-1.377 1.368 0 .756.63 1.377 1.378 1.377.756 0 1.376-.621 1.376-1.377 0-.747-.621-1.368-1.377-1.368zm0 .657a.72.72 0 0 1 .72.711c0 .405-.324.72-.72.72a.717.717 0 0 1-.72-.72.72.72 0 0 1 .72-.711zm-9.817 10.602H69.54c.216-.702.91-1.089 1.593-1.494.819-.477 1.629-.972 1.628-2.052 0-1.035-.873-1.728-1.872-1.728-1.27 0-2.106.954-2.106 1.998h.693c0-.702.585-1.269 1.368-1.269.513 0 1.197.279 1.197 1.035 0 .792-.81 1.161-1.628 1.656-.837.513-1.674 1.152-1.673 2.52h4.176v-.666zm3.191.756c1.35 0 2.259-1.206 2.258-3.006 0-1.818-.91-3.024-2.26-3.024-1.359 0-2.258 1.206-2.258 3.024 0 1.8.901 3.006 2.26 3.006zm-1.53-3.006c-.001-1.431.601-2.385 1.528-2.385.387 0 .72.171.982.477l-2.285 3.249c-.144-.369-.226-.828-.226-1.341zm3.06 0c0 1.413-.612 2.367-1.53 2.367a1.26 1.26 0 0 1-.954-.441l2.267-3.231c.144.36.216.801.216 1.305zm2.632-3.024c-.747 0-1.377.621-1.377 1.368 0 .756.63 1.377 1.378 1.377.756 0 1.376-.621 1.376-1.377l1.35-.558-4.094 4.455.442.441 4.642-5.04-.37-.531-2.096.666a1.39 1.39 0 0 0-1.251-.801zm0 .657a.72.72 0 0 1 .72.711c0 .405-.324.72-.72.72a.717.717 0 0 1-.72-.72.72.72 0 0 1 .72-.711zm2.467 2.358c-.747 0-1.377.621-1.377 1.368 0 .756.63 1.377 1.378 1.377.756 0 1.377-.621 1.376-1.377 0-.747-.621-1.368-1.377-1.368zm0 .657a.72.72 0 0 1 .72.711c0 .405-.324.72-.72.72a.717.717 0 0 1-.72-.72.72.72 0 0 1 .72-.711zM53.86 14.173v-.666l-4.32-1.917v.81l3.294 1.449-3.294 1.422v.819l4.32-1.917zm5.397 0v-.666l-4.32-1.917v.81l3.294 1.449-3.294 1.422v.819l4.32-1.917zm5.396 0v-.666l-4.32-1.917v.81l3.294 1.449-3.294 1.422v.819l4.32-1.917z" fill="#000"/><path fill="#000" fill-opacity=".3" d="M30 49h1v5h-1z"/><path fill-rule="evenodd" clip-rule="evenodd" d="M31 0h-1v5h1V0zm36 0h1v5h-1V0zm0 49h1v5h-1v-5z" fill="#000" fill-opacity=".3"/></svg>