<svg width="100" height="60" viewBox="0 0 100 60" fill="none" xmlns="http://www.w3.org/2000/svg"><mask id="a" fill="#fff"><path fill-rule="evenodd" clip-rule="evenodd" d="M60 0c0 5.523-4.477 10-10 10S40 5.523 40 0H0v60h40c0-5.523 4.477-10 10-10s10 4.477 10 10h40V0H60z"/></mask><path fill-rule="evenodd" clip-rule="evenodd" d="M60 0c0 5.523-4.477 10-10 10S40 5.523 40 0H0v60h40c0-5.523 4.477-10 10-10s10 4.477 10 10h40V0H60z" fill="#EB4375"/><path d="M60 0v-1h-1v1h1zM40 0h1v-1h-1v1zM0 0v-1h-1v1h1zm0 60h-1v1h1v-1zm40 0v1h1v-1h-1zm20 0h-1v1h1v-1zm40 0v1h1v-1h-1zm0-60h1v-1h-1v1zM50 11c6.075 0 11-4.925 11-11h-2a9 9 0 0 1-9 9v2zM39 0c0 6.075 4.925 11 11 11V9a9 9 0 0 1-9-9h-2zM0 1h40v-2H0v2zm1 59V0h-2v60h2zm39-1H0v2h40v-2zm1 1a9 9 0 0 1 9-9v-2c-6.075 0-11 4.925-11 11h2zm9-9a9 9 0 0 1 9 9h2c0-6.075-4.925-11-11-11v2zm50 8H60v2h40v-2zM99 0v60h2V0h-2zM60 1h40v-2H60v2z" fill="#000" fill-opacity=".05" mask="url(#a)"/><path opacity=".3" d="M7.7 52h-.9v-.9h.9v.9zm0-3.762h-.9v-.9h.9v.9zM10.207 52h-.901v-.9h.9v.9zm0-3.762h-.901v-.9h.9v.9zM12.71 52h-.9v-.9h.9v.9zm0-3.762h-.9v-.9h.9v.9zM7.7 32h-.9v-.9h.9v.9zm0-3.762h-.9v-.9h.9v.9zM10.207 32h-.901v-.9h.9v.9zm0-3.762h-.901v-.9h.9v.9zM12.71 32h-.9v-.9h.9v.9zm0-3.762h-.9v-.9h.9v.9zM7.7 14h-.9v-.9h.9v.9zm0-3.762h-.9v-.9h.9v.9zM10.207 14h-.901v-.9h.9v.9zm0-3.762h-.901v-.9h.9v.9zM12.71 14h-.9v-.9h.9v.9zm0-3.762h-.9v-.9h.9v.9zM88.186 52h-.9v-.9h.9v.9zm0-3.762h-.9v-.9h.9v.9zM90.691 52h-.901v-.9h.9v.9zm0-3.762h-.901v-.9h.9v.9zM93.196 52h-.901v-.9h.9v.9zm0-3.762h-.901v-.9h.9v.9zM88.186 32h-.9v-.9h.9v.9zm0-3.762h-.9v-.9h.9v.9zM90.691 32h-.901v-.9h.9v.9zm0-3.762h-.901v-.9h.9v.9zM93.196 32h-.901v-.9h.9v.9zm0-3.762h-.901v-.9h.9v.9zM88.186 14h-.9v-.9h.9v.9zm0-3.762h-.9v-.9h.9v.9zM90.691 14h-.901v-.9h.9v.9zm0-3.762h-.901v-.9h.9v.9zM93.196 14h-.901v-.9h.9v.9zm0-3.762h-.901v-.9h.9v.9z" fill="#000"/></svg>